<?xml version="1.0" encoding="UTF-8" ?>
<!DOCTYPE svg PUBLIC "-//W3C//DTD SVG 1.1//EN" "http://www.w3.org/Graphics/SVG/1.1/DTD/svg11.dtd">
<svg width="569pt" height="625pt" viewBox="0 0 569 625" version="1.1" xmlns="http://www.w3.org/2000/svg">
<path fill="#fefefe" d=" M 0.00 0.00 L 282.55 0.00 C 270.53 4.07 260.45 11.99 250.33 19.37 C 226.79 37.20 206.02 59.75 194.12 87.06 C 189.10 98.49 185.68 110.63 184.02 123.01 C 182.88 131.21 182.90 139.60 180.68 147.63 C 178.75 154.93 175.35 161.79 170.99 167.94 C 161.33 181.72 152.24 195.88 142.92 209.88 C 141.35 212.59 137.99 212.67 135.31 213.45 C 130.61 214.47 126.49 217.04 122.30 219.28 C 101.00 230.57 79.96 243.64 64.36 262.35 C 54.60 274.17 47.96 289.42 49.75 305.00 C 50.38 315.06 55.02 324.15 59.62 332.91 C 50.19 346.93 39.16 359.80 30.02 374.01 C 11.60 402.41 1.10 436.07 1.25 469.99 C 1.31 478.71 1.27 487.52 2.94 496.12 C 4.12 501.89 6.74 507.89 11.98 511.07 C 17.87 514.70 25.13 514.05 31.73 513.55 C 55.40 511.04 79.24 512.13 103.00 511.88 C 113.65 511.74 124.31 511.66 134.96 511.37 C 142.45 511.19 150.05 510.82 157.43 512.43 C 168.92 514.76 179.61 520.81 187.47 529.52 C 192.04 534.61 196.69 539.85 202.81 543.13 C 220.84 553.15 244.65 550.34 260.67 537.67 C 266.71 532.97 270.76 526.38 275.54 520.53 C 277.73 517.95 279.99 515.12 283.23 513.84 C 285.95 512.87 288.46 514.96 290.28 516.75 C 297.18 523.93 301.11 533.70 309.27 539.71 C 324.45 551.09 346.51 553.56 363.27 544.21 C 371.87 539.67 375.92 530.23 383.41 524.38 C 396.11 514.14 412.99 510.24 429.07 511.26 C 444.69 512.24 460.35 511.80 476.00 511.89 C 498.35 511.83 520.70 511.99 543.05 511.80 C 548.68 511.58 554.78 511.77 559.75 508.70 C 564.25 505.72 564.12 499.71 564.73 494.93 C 566.13 475.98 569.74 457.04 568.11 437.99 C 566.96 425.85 562.59 414.13 556.08 403.86 C 500.93 319.75 447.32 234.64 392.80 150.12 C 388.12 143.35 386.94 135.07 386.61 127.04 C 384.79 107.12 377.18 88.10 366.86 71.10 C 354.58 51.32 338.69 34.12 322.37 17.64 C 314.75 9.90 305.50 3.90 295.38 0.00 L 569.00 0.00 L 569.00 625.00 L 306.74 625.00 C 309.35 623.00 313.03 620.77 312.94 617.07 C 311.43 610.63 304.47 606.22 305.13 599.13 C 306.02 592.10 311.71 587.17 316.37 582.38 C 319.26 579.36 322.96 575.74 322.05 571.15 C 320.57 565.18 312.67 562.79 307.54 565.54 C 302.26 568.38 299.02 573.71 294.35 577.33 C 291.39 579.77 287.14 581.43 283.44 579.64 C 276.84 576.44 274.38 568.28 267.55 565.39 C 261.03 562.56 252.92 568.04 252.36 574.90 C 252.95 579.59 257.10 582.63 260.20 585.79 C 263.62 589.30 268.23 592.76 268.77 597.99 C 267.85 604.55 260.23 607.21 258.22 613.25 C 257.53 618.75 263.05 623.29 268.12 623.87 C 275.63 624.58 279.52 615.40 286.91 615.73 C 292.47 616.87 295.92 621.92 300.39 625.00 L 163.78 625.00 C 167.65 622.98 170.87 619.99 173.76 616.76 C 185.18 604.18 196.67 591.68 208.25 579.25 C 211.41 575.93 213.71 571.95 215.71 567.86 C 212.89 565.29 209.74 562.64 205.75 562.41 C 201.30 561.70 196.91 563.68 193.85 566.83 C 180.22 580.54 166.97 594.64 153.37 608.39 C 151.52 610.59 148.70 613.19 149.64 616.37 C 151.19 620.66 155.41 623.11 159.30 625.00 L 0.00 625.00 L 0.00 0.00 Z" />
<path fill="#727792" d=" M 282.55 0.00 L 295.38 0.00 C 305.50 3.90 314.75 9.90 322.37 17.64 C 338.69 34.12 354.58 51.32 366.86 71.10 C 377.18 88.10 384.79 107.12 386.61 127.04 C 386.94 135.07 388.12 143.35 392.80 150.12 C 447.32 234.64 500.93 319.75 556.08 403.86 C 562.59 414.13 566.96 425.85 568.11 437.99 C 569.74 457.04 566.13 475.98 564.73 494.93 C 564.12 499.71 564.25 505.72 559.75 508.70 C 554.78 511.77 548.68 511.58 543.05 511.80 C 520.70 511.99 498.35 511.83 476.00 511.89 C 460.35 511.80 444.69 512.24 429.07 511.26 C 412.99 510.24 396.11 514.14 383.41 524.38 C 375.92 530.23 371.87 539.67 363.27 544.21 C 346.51 553.56 324.45 551.09 309.27 539.71 C 301.11 533.70 297.18 523.93 290.28 516.75 C 288.46 514.96 285.95 512.87 283.23 513.84 C 279.99 515.12 277.73 517.95 275.54 520.53 C 270.76 526.38 266.71 532.97 260.67 537.67 C 244.65 550.34 220.84 553.15 202.81 543.13 C 196.69 539.85 192.04 534.61 187.47 529.52 C 179.61 520.81 168.92 514.76 157.43 512.43 C 150.05 510.82 142.45 511.19 134.96 511.37 C 124.31 511.66 113.65 511.74 103.00 511.88 C 79.24 512.13 55.40 511.04 31.73 513.55 C 25.13 514.05 17.87 514.70 11.98 511.07 C 6.74 507.89 4.12 501.89 2.94 496.12 C 1.27 487.52 1.31 478.71 1.25 469.99 C 1.10 436.07 11.60 402.41 30.02 374.01 C 39.16 359.80 50.19 346.93 59.62 332.91 C 55.02 324.15 50.38 315.06 49.75 305.00 C 47.96 289.42 54.60 274.17 64.36 262.35 C 79.96 243.64 101.00 230.57 122.30 219.28 C 126.49 217.04 130.61 214.47 135.31 213.45 C 137.99 212.67 141.35 212.59 142.92 209.88 C 152.24 195.88 161.33 181.72 170.99 167.94 C 175.35 161.79 178.75 154.93 180.68 147.63 C 182.90 139.60 182.88 131.21 184.02 123.01 C 185.68 110.63 189.10 98.49 194.12 87.06 C 206.02 59.75 226.79 37.20 250.33 19.37 C 260.45 11.99 270.53 4.07 282.55 0.00 Z" />
<path fill="#fefefe" d=" M 263.89 34.87 C 270.52 28.44 279.49 23.49 289.01 24.63 C 299.53 25.63 307.60 33.20 314.91 40.12 C 334.58 58.52 350.33 81.83 356.92 108.16 C 359.25 117.60 360.93 127.25 360.89 137.00 C 360.66 165.01 360.92 193.03 360.75 221.05 C 360.17 233.18 360.59 245.32 360.14 257.45 C 348.83 256.33 337.39 256.99 326.24 259.18 C 315.82 261.03 306.06 265.49 295.59 267.14 C 295.77 263.23 296.30 259.32 297.48 255.57 C 308.69 218.01 318.76 180.13 329.35 142.40 C 330.45 138.69 331.40 134.45 329.03 131.00 C 319.17 113.86 309.48 96.62 299.39 79.62 C 296.20 74.96 292.78 69.36 286.92 67.96 C 281.00 67.15 276.78 72.39 273.58 76.60 C 264.83 89.34 257.71 103.13 248.90 115.85 C 245.45 121.14 240.93 125.99 239.31 132.25 C 237.92 136.93 238.27 141.91 239.41 146.59 C 242.06 157.70 246.91 168.11 250.00 179.09 C 259.04 209.99 268.40 240.93 273.69 272.75 C 251.31 278.24 228.77 283.21 206.05 287.07 C 205.42 267.06 206.41 247.04 206.64 227.03 C 206.64 203.35 207.04 179.68 206.88 156.00 C 206.68 140.38 207.57 124.50 212.54 109.58 C 221.98 80.30 241.91 55.81 263.89 34.87 Z" />
<path fill="#fefefe" d=" M 282.41 94.23 C 284.46 93.32 286.59 94.60 288.24 95.75 C 292.06 98.58 295.18 102.30 297.55 106.41 C 304.47 118.67 309.21 132.72 307.91 146.96 C 307.28 155.51 303.82 163.44 301.73 171.67 C 297.58 187.69 295.13 204.15 289.88 219.89 C 288.21 224.91 286.08 229.80 283.12 234.21 C 275.07 210.11 269.08 185.38 261.93 161.02 C 260.34 155.43 258.40 149.87 258.01 144.03 C 257.54 137.21 259.32 130.39 262.28 124.28 C 265.84 117.15 271.24 111.17 275.36 104.37 C 277.68 100.99 279.27 96.98 282.41 94.23 Z" />
<path fill="#fefefe" d=" M 385.38 197.29 C 388.33 195.98 392.29 195.59 393.98 199.02 C 428.13 252.25 461.88 305.76 496.00 359.02 C 500.64 366.57 505.91 373.71 511.27 380.78 C 519.08 390.90 525.69 402.02 529.90 414.13 C 536.41 432.67 537.81 452.58 536.92 472.08 C 536.60 477.45 535.76 483.10 532.55 487.57 C 529.92 491.19 525.33 492.66 521.02 492.76 C 507.02 493.16 493.02 492.23 479.02 492.40 C 453.01 492.41 427.01 491.34 401.01 490.91 C 387.46 490.87 374.28 497.27 365.47 507.47 C 359.53 514.33 352.81 521.46 343.69 523.76 C 335.90 525.78 328.06 521.75 322.60 516.40 C 313.32 507.75 307.89 495.94 299.15 486.84 C 294.62 481.96 287.51 478.44 280.86 480.94 C 274.29 483.60 270.65 490.11 266.41 495.40 C 261.54 501.55 257.38 508.28 252.11 514.11 C 242.29 524.12 225.83 527.25 213.29 520.71 C 207.72 517.84 204.17 512.49 199.77 508.24 C 191.38 499.96 180.09 494.81 168.40 493.55 C 163.29 493.01 158.14 493.25 153.01 493.29 C 126.01 493.73 99.00 494.02 72.00 493.63 C 64.80 493.63 57.59 494.15 50.40 493.53 C 45.75 493.03 40.85 491.96 37.21 488.82 C 33.83 485.89 32.55 481.34 32.13 477.05 C 29.85 448.97 34.90 419.81 49.34 395.37 C 53.98 387.23 59.91 379.93 65.20 372.21 C 69.47 366.35 73.28 360.14 77.88 354.52 C 93.55 368.80 110.94 381.05 129.20 391.79 C 171.58 416.72 217.02 435.80 262.27 454.80 C 267.75 457.18 273.62 458.93 278.40 462.66 C 293.71 474.75 312.28 482.54 331.53 485.54 C 351.17 488.06 371.59 486.47 390.10 479.18 C 419.14 468.10 443.13 444.63 455.02 415.93 C 464.71 392.78 466.20 366.35 459.82 342.14 C 450.34 305.88 421.97 275.06 386.28 263.35 C 386.93 244.80 388.09 226.19 386.32 207.66 C 385.96 204.21 385.63 200.75 385.38 197.29 Z" />
<path fill="#fefefe" d=" M 170.16 220.17 C 173.60 215.56 176.63 210.57 180.89 206.64 C 181.93 234.78 180.78 262.95 181.36 291.10 C 163.74 294.16 145.85 295.85 127.96 296.30 C 124.52 296.41 121.07 296.26 117.63 296.00 C 120.83 289.96 125.04 284.55 128.84 278.90 C 142.31 259.11 156.06 239.51 170.16 220.17 Z" />
<path fill="#fefefe" d=" M 118.73 230.81 C 123.72 228.03 128.68 225.19 133.95 222.96 C 130.68 228.88 126.71 234.37 123.03 240.03 C 111.60 257.07 100.54 274.36 88.75 291.15 C 84.78 289.09 80.47 286.36 79.40 281.69 C 77.97 275.15 81.10 268.76 84.22 263.21 C 88.63 255.87 93.84 248.95 99.84 242.83 C 105.48 237.90 112.32 234.61 118.73 230.81 Z" />
<path fill="#fefefe" d=" M 273.73 296.81 C 293.42 277.20 321.05 265.15 349.00 265.95 C 371.14 265.32 392.97 273.03 410.98 285.68 C 409.20 285.86 407.43 286.05 405.67 286.25 C 408.36 287.93 411.24 289.31 413.83 291.17 C 416.01 292.68 416.34 295.54 417.18 297.87 C 415.03 295.67 413.12 293.20 410.62 291.38 C 408.34 289.67 405.33 290.27 402.69 290.21 C 404.89 291.76 407.25 293.09 409.47 294.63 C 412.13 296.35 413.06 299.58 415.10 301.88 C 417.54 303.54 420.56 304.22 422.81 306.21 C 424.79 307.95 426.55 309.93 428.51 311.72 C 428.44 309.28 428.07 306.59 426.03 304.96 C 423.17 302.66 419.69 301.29 416.74 299.11 C 419.06 299.29 421.50 299.27 423.65 300.30 C 425.92 301.50 427.37 303.75 429.46 305.19 C 430.91 306.11 432.67 306.63 433.72 308.09 C 446.61 325.30 454.27 346.49 454.99 368.00 C 455.93 389.84 449.67 411.85 437.50 429.99 C 437.35 426.91 437.12 423.83 436.74 420.77 C 434.92 425.30 434.95 430.70 431.55 434.49 C 428.98 437.64 426.43 440.81 424.11 444.16 C 422.98 445.73 422.93 447.88 421.55 449.29 C 407.83 462.08 390.73 471.27 372.41 475.38 C 345.46 481.68 316.05 476.78 292.66 461.99 C 292.04 461.40 291.46 460.79 290.92 460.15 C 293.01 459.26 295.28 459.26 297.49 459.49 C 297.45 458.71 297.42 457.93 297.38 457.15 C 299.08 456.99 300.78 456.81 302.49 456.64 C 299.99 454.73 297.23 453.18 294.82 451.16 C 292.82 449.53 292.62 446.79 292.02 444.47 C 289.12 443.46 285.75 442.85 283.80 440.24 C 281.81 437.75 280.11 435.04 277.98 432.65 C 278.23 435.01 278.00 437.60 279.20 439.74 C 281.56 442.47 284.77 444.29 287.24 446.92 C 280.61 447.33 277.09 441.27 272.77 437.41 C 271.11 443.48 277.54 446.88 281.92 449.31 C 279.44 448.61 276.85 447.91 274.92 446.11 C 271.20 442.85 266.98 440.04 264.11 435.93 C 252.73 420.57 245.11 402.20 243.20 383.13 C 242.81 371.73 242.34 360.14 245.09 348.97 C 247.07 339.27 250.95 330.11 255.40 321.30 C 255.80 322.16 256.21 323.03 256.62 323.90 C 257.82 319.54 259.68 315.34 262.71 311.93 C 260.33 316.83 257.73 322.54 260.75 327.81 C 262.37 320.37 266.72 314.11 271.12 308.07 C 272.86 306.10 274.98 304.54 276.94 302.81 C 274.69 303.40 271.95 303.36 270.32 305.26 C 268.36 307.48 266.75 309.98 264.75 312.17 C 264.70 308.21 267.48 305.50 270.35 303.23 C 272.50 301.67 271.59 298.42 273.73 296.81 Z" />
<path fill="#727792" d=" M 398.71 294.09 C 401.49 293.99 404.58 293.28 407.08 294.90 C 410.57 296.87 411.68 300.99 414.05 303.97 C 416.66 306.19 420.28 306.84 422.80 309.20 C 424.75 311.16 425.16 314.02 425.78 316.59 C 423.53 315.06 421.73 313.03 419.91 311.05 C 417.58 308.41 413.82 308.05 411.05 306.10 C 409.41 303.72 408.75 300.51 406.12 298.95 C 403.67 297.30 401.09 295.84 398.71 294.09 Z" />
<path fill="#727792" d=" M 394.60 297.56 C 398.14 297.83 402.25 297.37 405.07 299.99 C 407.60 302.47 408.42 306.07 409.71 309.26 C 414.79 311.09 421.20 315.22 419.08 321.57 C 416.98 319.77 415.23 317.63 413.41 315.56 C 411.39 313.19 408.18 312.42 405.96 310.31 C 404.90 308.18 404.68 305.64 403.21 303.74 C 400.65 301.28 397.46 299.63 394.60 297.56 Z" />
<path fill="#727792" d=" M 389.39 301.36 C 392.64 301.70 396.31 301.78 398.81 304.20 C 401.29 306.67 401.91 310.31 403.95 313.08 C 406.87 315.86 411.35 317.16 413.01 321.13 C 413.87 322.82 413.28 324.73 413.11 326.50 C 409.10 323.25 406.06 318.85 401.32 316.53 C 397.55 314.90 398.47 309.87 395.68 307.37 C 393.58 305.36 391.31 303.54 389.39 301.36 Z" />
<path fill="#727792" d=" M 383.60 304.27 C 386.21 304.83 389.20 304.90 391.33 306.72 C 394.23 309.65 394.42 314.10 396.60 317.45 C 399.19 320.21 402.98 321.83 404.82 325.26 C 405.34 326.96 405.02 328.78 405.06 330.53 C 402.39 329.52 400.46 327.45 398.70 325.31 C 396.58 322.71 393.59 321.11 390.68 319.56 C 390.43 316.72 390.67 313.56 388.84 311.17 C 387.14 308.83 385.21 306.67 383.60 304.27 Z" />
<path fill="#727792" d=" M 274.71 308.68 C 276.47 306.39 279.57 306.46 282.16 306.13 C 277.32 310.77 273.52 316.28 269.63 321.71 C 267.91 324.62 268.05 328.16 267.32 331.38 C 265.13 328.18 264.45 323.93 266.52 320.49 C 269.03 316.42 271.73 312.43 274.71 308.68 Z" />
<path fill="#727792" d=" M 375.83 307.68 C 378.12 308.28 380.86 308.51 382.39 310.58 C 385.19 313.86 385.14 318.41 386.79 322.21 C 389.36 324.65 392.90 326.03 394.90 329.07 C 396.31 331.16 395.87 333.83 395.99 336.22 C 391.65 333.60 388.88 329.19 384.81 326.25 C 383.26 324.90 381.07 323.87 380.64 321.67 C 379.46 316.86 377.55 312.30 375.83 307.68 Z" />
<path fill="#727792" d=" M 281.22 312.15 C 282.68 310.47 285.12 310.53 287.11 310.00 C 283.71 314.64 279.61 318.97 277.68 324.51 C 276.62 328.05 276.45 331.76 275.75 335.38 C 271.78 331.16 271.45 323.78 275.41 319.44 C 277.38 317.04 279.13 314.45 281.22 312.15 Z" />
<path fill="#727792" d=" M 288.92 313.95 C 290.93 312.04 293.66 311.24 296.15 310.16 C 292.94 315.33 289.80 320.54 286.89 325.88 C 284.73 329.72 285.43 334.30 284.93 338.50 C 280.28 334.33 279.55 325.83 284.37 321.54 C 286.43 319.36 287.08 316.27 288.92 313.95 Z" />
<path fill="#727792" d=" M 366.92 310.74 C 368.90 311.40 371.59 311.19 372.84 313.15 C 375.26 316.78 374.70 321.38 375.82 325.42 C 378.25 328.55 382.18 330.37 383.97 334.04 C 385.12 335.97 384.38 338.23 384.10 340.29 C 378.07 336.97 375.26 330.18 369.53 326.45 C 371.82 321.07 368.17 315.87 366.92 310.74 Z" />
<path fill="#727792" d=" M 296.22 318.09 C 297.57 314.79 301.26 313.75 304.13 312.19 C 301.82 316.83 299.49 321.47 296.88 325.95 C 293.55 330.85 295.89 337.00 295.09 342.47 C 290.80 338.28 289.47 332.06 289.83 326.25 C 292.82 324.28 294.85 321.35 296.22 318.09 Z" />
<path fill="#727792" d=" M 306.23 320.13 C 307.68 317.00 310.43 314.83 313.24 312.98 C 311.98 319.41 308.14 324.93 306.55 331.23 C 306.27 335.50 307.44 339.70 307.87 343.93 C 307.19 343.90 305.82 343.82 305.14 343.79 C 302.26 339.48 300.44 334.34 300.77 329.11 C 302.42 326.02 304.74 323.32 306.23 320.13 Z" />
<path fill="#727792" d=" M 358.98 312.58 C 360.55 313.16 362.17 313.67 363.66 314.47 C 365.01 317.82 364.53 321.53 364.91 325.05 C 364.82 329.92 370.27 331.83 372.39 335.65 C 374.04 337.68 372.93 340.24 372.10 342.35 C 369.00 340.32 366.66 337.44 364.57 334.43 C 363.08 332.23 360.98 330.36 360.00 327.86 C 359.57 322.78 359.58 317.66 358.98 312.58 Z" />
<path fill="#727792" d=" M 317.44 319.38 C 318.24 316.81 321.06 316.05 323.19 314.92 C 322.37 320.27 321.11 325.65 318.33 330.35 C 317.21 331.89 318.28 333.72 318.66 335.32 C 319.90 338.86 320.79 342.54 320.82 346.32 C 314.55 343.18 312.36 335.51 311.30 329.08 C 315.56 327.61 315.90 322.94 317.44 319.38 Z" />
<path fill="#727792" d=" M 349.19 314.59 C 350.54 315.23 352.30 315.41 353.25 316.68 C 355.00 322.04 352.65 328.25 355.81 333.21 C 357.95 336.72 360.80 340.14 360.33 344.54 C 358.67 344.06 356.71 343.88 355.63 342.35 C 352.73 338.83 350.20 334.99 347.97 331.01 C 347.10 329.83 347.75 328.43 347.99 327.18 C 349.09 323.07 348.86 318.79 349.19 314.59 Z" />
<path fill="#727792" d=" M 328.31 319.32 C 329.21 317.55 331.20 316.81 332.77 315.78 C 333.02 321.29 330.87 326.50 330.43 331.92 C 331.64 336.77 334.28 341.21 334.90 346.24 C 333.17 345.78 331.01 345.74 329.99 344.01 C 327.35 340.29 325.63 335.99 324.21 331.68 C 323.51 330.13 324.76 328.71 325.27 327.33 C 326.53 324.75 327.09 321.91 328.31 319.32 Z" />
<path fill="#727792" d=" M 337.55 318.55 C 339.29 318.42 341.03 318.29 342.79 318.17 C 342.92 322.74 341.54 327.12 340.92 331.59 C 342.71 335.97 346.21 339.52 347.33 344.24 C 340.92 343.96 337.86 337.46 335.93 332.25 C 335.43 327.65 336.95 323.09 337.55 318.55 Z" />
<path fill="#727792" d=" M 352.93 413.35 C 357.78 418.07 360.52 424.42 364.38 429.91 C 361.98 434.66 360.84 439.91 358.69 444.78 C 357.40 444.18 356.11 443.58 354.83 443.00 C 355.16 438.83 355.94 434.73 356.81 430.65 C 354.59 431.00 352.39 431.43 350.21 431.95 C 350.07 436.05 349.72 440.15 349.15 444.22 C 347.75 444.09 346.34 443.97 344.94 443.85 C 344.17 440.24 344.51 436.56 344.88 432.93 C 345.56 429.38 342.61 426.79 341.08 423.94 C 339.35 421.47 339.07 418.41 338.90 415.51 C 346.24 418.65 348.04 429.34 356.87 430.18 C 355.39 424.63 351.27 419.33 352.93 413.35 Z" />
<path fill="#727792" d=" M 365.79 413.38 C 371.40 417.38 373.06 424.63 376.04 430.52 C 371.70 434.08 371.93 440.24 368.79 444.63 C 368.06 444.70 366.60 444.82 365.87 444.88 C 365.72 440.01 367.84 435.26 366.87 430.40 C 367.75 430.16 368.64 429.93 369.53 429.71 C 367.70 424.43 365.40 419.10 365.79 413.38 Z" />
<path fill="#727792" d=" M 379.19 413.48 C 384.65 417.60 386.33 424.72 388.38 430.90 C 389.55 430.92 390.72 430.94 391.90 430.97 C 391.69 425.38 389.88 419.68 391.65 414.19 C 396.64 418.77 398.42 425.51 398.37 432.09 C 393.99 434.01 393.52 439.27 390.60 442.56 C 389.22 444.38 387.06 445.26 385.03 446.15 C 386.04 441.42 388.45 437.20 390.28 432.76 C 388.57 432.79 386.88 432.83 385.18 432.88 C 383.65 437.15 381.68 441.26 378.87 444.85 C 378.09 444.86 376.52 444.89 375.74 444.90 C 376.39 439.55 379.56 435.02 380.80 429.87 C 380.45 424.39 378.39 419.05 379.19 413.48 Z" />
<path fill="#727792" d=" M 403.09 414.83 C 407.24 419.61 408.55 426.34 407.56 432.47 C 405.45 434.52 403.39 436.65 402.26 439.42 C 400.82 443.07 396.86 444.37 393.56 445.78 C 396.39 440.20 401.82 435.65 402.11 429.03 C 402.16 424.28 401.71 419.45 403.09 414.83 Z" />
<path fill="#727792" d=" M 413.32 415.66 C 417.22 419.77 417.98 426.30 416.56 431.58 C 414.37 435.00 411.60 438.03 409.57 441.57 C 408.06 444.53 404.69 445.33 401.80 446.29 C 405.06 441.07 409.23 436.28 411.21 430.37 C 412.32 425.53 412.07 420.48 413.32 415.66 Z" />
<path fill="#727792" d=" M 422.41 416.72 C 425.23 419.62 425.48 423.99 425.78 427.82 C 425.97 431.05 423.25 433.19 421.27 435.33 C 418.85 437.68 417.79 441.03 415.57 443.54 C 413.70 445.35 411.15 446.20 408.83 447.27 C 412.83 442.03 416.51 436.55 419.75 430.82 C 421.59 426.35 421.30 421.37 422.41 416.72 Z" />
<path fill="#727792" d=" M 324.96 417.62 C 331.37 419.42 332.76 427.61 338.74 430.21 C 340.01 430.72 341.33 431.08 342.65 431.48 C 341.05 432.36 339.45 433.27 337.87 434.20 C 338.38 438.18 340.40 442.16 339.23 446.20 C 337.35 445.03 334.91 444.18 334.04 441.94 C 333.00 439.42 333.10 436.64 332.71 433.99 C 332.64 430.92 329.85 429.09 328.26 426.77 C 326.07 424.22 325.39 420.85 324.96 417.62 Z" />
<path fill="#727792" d=" M 430.24 418.40 C 431.64 423.68 432.61 430.18 428.53 434.56 C 424.80 438.70 423.06 445.26 416.84 446.37 C 420.31 441.27 423.57 436.01 426.36 430.49 C 428.22 426.66 428.89 422.41 430.24 418.40 Z" />
<path fill="#727792" d=" M 312.09 421.01 C 313.01 420.71 313.93 420.40 314.86 420.11 C 319.22 424.76 322.70 430.38 328.32 433.71 C 327.72 435.61 326.29 437.62 327.31 439.63 C 328.14 441.90 329.43 443.96 330.65 446.04 C 330.44 446.62 330.03 447.78 329.82 448.36 C 327.57 447.39 325.08 446.52 323.57 444.47 C 321.64 442.01 322.05 438.67 321.41 435.78 C 321.16 433.42 318.84 432.16 317.44 430.51 C 314.68 427.99 313.42 424.39 312.09 421.01 Z" />
<path fill="#727792" d=" M 301.86 422.57 C 304.21 424.04 306.11 426.06 307.79 428.25 C 310.09 431.27 313.33 433.33 316.49 435.33 C 316.65 437.91 316.24 440.85 317.97 443.03 C 319.67 445.28 321.47 447.49 322.57 450.13 C 319.88 449.61 316.69 449.46 314.83 447.16 C 312.39 444.12 312.07 440.02 310.13 436.72 C 308.22 434.64 305.55 433.41 303.75 431.23 C 301.96 428.73 302.09 425.49 301.86 422.57 Z" />
<path fill="#727792" d=" M 291.19 425.52 C 295.01 426.42 296.88 430.02 299.29 432.73 C 301.42 435.28 304.39 436.88 307.20 438.57 C 307.71 440.74 307.86 443.09 309.04 445.05 C 310.73 447.36 312.90 449.27 314.76 451.44 C 311.40 452.38 307.65 451.28 305.33 448.69 C 303.38 446.01 303.17 442.50 301.38 439.74 C 299.23 437.19 296.08 435.67 294.10 432.95 C 292.53 430.75 291.90 428.08 291.19 425.52 Z" />
<path fill="#727792" d=" M 284.07 429.60 C 287.68 432.37 290.10 436.61 294.33 438.57 C 295.89 439.37 297.53 440.02 299.00 441.00 C 300.35 443.35 300.78 446.23 302.68 448.27 C 304.27 450.03 306.02 451.65 307.63 453.39 C 305.55 453.47 303.31 453.72 301.44 452.59 C 298.32 451.00 297.00 447.55 295.11 444.83 C 292.82 441.04 287.81 440.27 285.33 436.66 C 284.05 434.55 284.30 431.95 284.07 429.60 Z" />
<path fill="#727792" d=" M 193.85 566.83 C 196.91 563.68 201.30 561.70 205.75 562.41 C 209.74 562.64 212.89 565.29 215.71 567.86 C 213.71 571.95 211.41 575.93 208.25 579.25 C 196.67 591.68 185.18 604.18 173.76 616.76 C 170.87 619.99 167.65 622.98 163.78 625.00 L 159.30 625.00 C 155.41 623.11 151.19 620.66 149.64 616.37 C 148.70 613.19 151.52 610.59 153.37 608.39 C 166.97 594.64 180.22 580.54 193.85 566.83 Z" />
<path fill="#727792" d=" M 307.54 565.54 C 312.67 562.79 320.57 565.18 322.05 571.15 C 322.96 575.74 319.26 579.36 316.37 582.38 C 311.71 587.17 306.02 592.10 305.13 599.13 C 304.47 606.22 311.43 610.63 312.94 617.07 C 313.03 620.77 309.35 623.00 306.74 625.00 L 300.39 625.00 C 295.92 621.92 292.47 616.87 286.91 615.73 C 279.52 615.40 275.63 624.58 268.12 623.87 C 263.05 623.29 257.53 618.75 258.22 613.25 C 260.23 607.21 267.85 604.55 268.77 597.99 C 268.23 592.76 263.62 589.30 260.20 585.79 C 257.10 582.63 252.95 579.59 252.36 574.90 C 252.92 568.04 261.03 562.56 267.55 565.39 C 274.38 568.28 276.84 576.44 283.44 579.64 C 287.14 581.43 291.39 579.77 294.35 577.33 C 299.02 573.71 302.26 568.38 307.54 565.54 Z" />
<path fill="#727792" d=" M 370.38 564.44 C 374.86 563.30 379.17 565.69 382.33 568.68 C 395.65 581.68 408.98 594.67 422.03 607.95 C 423.83 610.05 426.21 612.55 425.48 615.57 C 423.92 620.61 418.53 624.33 413.23 623.68 C 409.99 623.23 407.51 620.89 405.19 618.80 C 391.00 605.32 376.64 591.96 363.77 577.19 C 362.30 575.35 360.33 572.98 361.48 570.49 C 363.04 567.00 366.79 565.11 370.38 564.44 Z" />
</svg>
