<svg xmlns="http://www.w3.org/2000/svg" style="display: none;">

    <symbol id="main-logo">
      	<title>main-logo</title>
      	<path fill="#ffffff" d=" M 0.00 0.00 L 283.29 0.00 C 271.90 2.97 262.60 10.53 253.18 17.19 C 227.57 35.93 205.01 60.18 192.87 89.86 C 188.92 99.42 186.12 109.44 184.44 119.65 C 182.57 130.20 183.26 141.22 179.49 151.41 C 175.73 163.21 167.20 172.47 160.73 182.78 C 154.24 193.07 146.94 202.86 140.80 213.36 C 136.03 211.48 131.64 214.52 127.57 216.61 C 108.92 226.16 90.57 236.84 75.08 251.11 C 63.27 262.00 52.91 275.67 50.19 291.87 C 47.65 306.12 52.21 320.71 59.87 332.69 C 52.73 342.57 45.46 352.36 38.12 362.10 C 20.41 385.92 7.80 413.77 3.30 443.20 C 1.22 456.03 0.85 469.08 1.39 482.06 C 1.75 488.38 2.08 494.83 4.22 500.86 C 5.80 505.35 8.67 509.66 13.07 511.79 C 18.27 514.52 24.35 514.20 30.02 513.75 C 57.92 510.74 86.01 512.64 113.99 511.79 C 124.34 511.80 134.68 511.46 145.02 511.26 C 158.75 511.17 172.57 515.92 182.89 525.09 C 188.83 530.16 193.04 537.08 199.73 541.31 C 218.20 553.63 244.32 551.11 261.30 537.28 C 269.34 530.93 273.48 520.92 281.58 514.64 C 283.73 512.89 286.72 513.43 288.61 515.28 C 295.19 521.24 298.97 529.54 304.96 536.01 C 313.87 544.93 326.51 549.52 338.97 549.98 C 349.25 550.28 359.97 547.63 368.00 540.97 C 373.01 536.93 376.02 531.04 380.82 526.78 C 393.59 514.75 411.90 510.28 429.07 511.31 C 445.71 512.48 462.40 511.84 479.06 512.00 C 499.74 511.94 520.41 512.13 541.08 511.90 C 547.13 511.63 553.61 512.05 559.14 509.15 C 562.55 507.43 563.99 503.57 564.20 499.97 C 565.66 484.64 567.46 469.35 568.62 454.01 C 569.82 436.30 565.58 418.12 555.75 403.26 C 501.91 321.16 449.60 238.08 396.36 155.60 C 392.53 149.77 388.48 143.71 387.56 136.63 C 386.84 130.10 386.64 123.49 385.25 117.04 C 380.25 90.50 366.04 66.66 348.82 46.22 C 341.11 36.95 332.81 28.19 324.43 19.54 C 315.85 10.86 305.77 2.96 293.70 0.00 L 569.00 0.00 L 569.00 625.00 L 306.43 625.00 C 309.39 623.22 313.16 620.90 313.20 617.02 C 311.95 611.68 306.78 608.28 305.50 602.91 C 303.97 597.55 307.19 592.40 310.55 588.50 C 314.29 583.93 319.61 580.49 322.02 574.95 C 323.90 568.62 316.91 563.39 311.05 564.48 C 303.51 565.52 300.01 573.24 294.29 577.32 C 291.47 579.49 287.63 581.45 284.07 579.86 C 276.96 577.03 274.75 568.26 267.71 565.32 C 261.62 562.60 254.56 567.18 252.52 573.05 C 251.66 575.64 253.04 578.28 254.67 580.24 C 259.10 585.52 265.25 589.44 268.39 595.73 C 269.99 599.78 266.39 603.22 263.80 605.83 C 261.34 608.46 257.52 610.94 258.00 615.05 C 259.41 621.56 267.68 626.39 273.78 622.76 C 278.31 620.21 282.08 614.61 287.94 615.92 C 292.94 617.51 295.99 622.19 300.25 625.00 L 162.78 625.00 C 165.68 624.20 168.37 622.67 170.39 620.42 C 183.03 606.73 195.56 592.93 208.28 579.31 C 211.47 575.96 213.83 571.96 215.87 567.84 C 212.33 564.04 207.19 561.59 201.91 562.36 C 197.68 562.73 194.56 565.89 191.78 568.78 C 178.97 581.99 166.16 595.19 153.32 608.37 C 151.35 610.58 148.32 613.29 149.65 616.58 C 151.46 620.97 155.75 623.84 160.22 625.00 L 0.00 625.00 L 0.00 0.00 Z" />
		<path fill="#5894b8" d=" M 283.29 0.00 L 293.70 0.00 C 305.77 2.96 315.85 10.86 324.43 19.54 C 332.81 28.19 341.11 36.95 348.82 46.22 C 366.04 66.66 380.25 90.50 385.25 117.04 C 386.64 123.49 386.84 130.10 387.56 136.63 C 388.48 143.71 392.53 149.77 396.36 155.60 C 449.60 238.08 501.91 321.16 555.75 403.26 C 565.58 418.12 569.82 436.30 568.62 454.01 C 567.46 469.35 565.66 484.64 564.20 499.97 C 563.99 503.57 562.55 507.43 559.14 509.15 C 553.61 512.05 547.13 511.63 541.08 511.90 C 520.41 512.13 499.74 511.94 479.06 512.00 C 462.40 511.84 445.71 512.48 429.07 511.31 C 411.90 510.28 393.59 514.75 380.82 526.78 C 376.02 531.04 373.01 536.93 368.00 540.97 C 359.97 547.63 349.25 550.28 338.97 549.98 C 326.51 549.52 313.87 544.93 304.96 536.01 C 298.97 529.54 295.19 521.24 288.61 515.28 C 286.72 513.43 283.73 512.89 281.58 514.64 C 273.48 520.92 269.34 530.93 261.30 537.28 C 244.32 551.11 218.20 553.63 199.73 541.31 C 193.04 537.08 188.83 530.16 182.89 525.09 C 172.57 515.92 158.75 511.17 145.02 511.26 C 134.68 511.46 124.34 511.80 113.99 511.79 C 86.01 512.64 57.92 510.74 30.02 513.75 C 24.35 514.20 18.27 514.52 13.07 511.79 C 8.67 509.66 5.80 505.35 4.22 500.86 C 2.08 494.83 1.75 488.38 1.39 482.06 C 0.85 469.08 1.22 456.03 3.30 443.20 C 7.80 413.77 20.41 385.92 38.12 362.10 C 45.46 352.36 52.73 342.57 59.87 332.69 C 64.93 340.59 71.14 347.70 77.86 354.22 C 70.77 364.36 63.72 374.52 56.45 384.54 C 45.75 399.25 38.24 416.26 34.65 434.10 C 31.89 447.53 31.24 461.34 32.03 475.01 C 32.32 479.48 33.09 484.31 36.20 487.77 C 39.33 491.24 44.07 492.59 48.55 493.24 C 58.67 494.53 68.87 493.04 79.02 493.67 C 101.02 493.93 123.01 493.62 145.00 493.28 C 154.59 493.46 164.31 492.27 173.76 494.36 C 183.97 496.45 193.54 501.63 200.79 509.14 C 204.59 513.01 207.80 517.65 212.67 520.29 C 223.75 526.55 238.23 524.70 248.32 517.33 C 252.84 514.15 255.85 509.43 259.13 505.08 C 263.67 499.00 268.11 492.83 272.90 486.94 C 276.33 482.78 281.50 479.40 287.10 480.12 C 293.85 480.84 298.93 486.01 302.99 491.01 C 310.32 500.61 316.32 511.53 325.93 519.14 C 331.27 523.40 338.64 525.59 345.28 523.29 C 353.84 520.43 360.17 513.55 365.90 506.89 C 374.91 496.64 388.39 490.57 402.06 490.79 C 440.69 491.99 479.33 492.52 517.96 492.78 C 523.20 492.99 529.25 492.08 532.51 487.49 C 537.43 480.38 536.88 471.27 537.02 463.03 C 537.45 441.25 533.72 419.00 523.47 399.59 C 516.89 386.72 506.90 376.08 499.13 363.97 C 465.31 311.34 431.99 258.39 398.20 205.74 C 396.21 202.78 394.71 199.38 392.06 196.93 C 389.89 195.29 387.23 196.77 385.16 197.80 C 386.50 205.13 386.76 212.60 387.17 220.03 C 387.46 234.48 387.30 248.95 385.97 263.35 C 377.64 260.48 368.96 258.66 360.20 257.78 C 360.96 216.53 360.70 175.27 360.78 134.01 C 359.62 106.00 348.49 78.84 330.76 57.25 C 323.30 48.10 314.93 39.69 305.82 32.17 C 299.24 26.80 290.54 23.17 281.96 24.92 C 273.55 26.37 266.69 31.96 260.88 37.88 C 238.59 59.62 218.61 85.44 210.73 116.08 C 206.29 132.33 207.01 149.29 207.00 165.96 C 207.18 184.65 206.65 203.33 206.75 222.02 C 206.27 243.77 205.88 265.51 206.00 287.27 C 197.87 288.72 189.72 290.08 181.56 291.32 C 180.37 276.56 181.46 261.77 181.24 246.99 C 181.35 233.47 181.09 219.95 180.89 206.44 C 176.86 210.61 173.74 215.51 170.27 220.13 C 152.05 245.13 134.38 270.53 117.19 296.25 C 107.58 295.85 97.74 294.95 88.79 291.18 C 104.32 268.55 119.17 245.45 134.47 222.66 C 137.06 219.92 139.27 216.82 140.80 213.36 C 146.94 202.86 154.24 193.07 160.73 182.78 C 167.20 172.47 175.73 163.21 179.49 151.41 C 183.26 141.22 182.57 130.20 184.44 119.65 C 186.12 109.44 188.92 99.42 192.87 89.86 C 205.01 60.18 227.57 35.93 253.18 17.19 C 262.60 10.53 271.90 2.97 283.29 0.00 Z" />
		<path fill="#ffffff" d=" M 260.88 37.88 C 266.69 31.96 273.55 26.37 281.96 24.92 C 290.54 23.17 299.24 26.80 305.82 32.17 C 314.93 39.69 323.30 48.10 330.76 57.25 C 348.49 78.84 359.62 106.00 360.78 134.01 C 360.70 175.27 360.96 216.53 360.20 257.78 C 342.99 256.02 325.49 258.40 309.16 264.01 C 304.52 265.16 299.87 266.32 295.25 267.55 C 295.76 263.46 296.40 259.38 297.59 255.43 C 308.50 218.74 318.44 181.78 328.67 144.90 C 329.49 141.62 330.85 138.34 330.60 134.90 C 329.73 131.09 327.21 127.94 325.40 124.55 C 317.09 109.92 308.70 95.34 300.22 80.81 C 297.44 76.40 294.44 71.83 289.95 68.99 C 287.24 67.24 283.66 67.41 280.98 69.13 C 276.52 71.86 273.58 76.35 270.76 80.62 C 261.83 94.74 253.82 109.47 243.87 122.93 C 239.68 128.56 237.40 135.83 238.61 142.84 C 240.08 151.77 243.56 160.17 246.56 168.66 C 248.85 175.04 250.63 181.58 252.57 188.07 C 260.83 216.02 268.81 244.13 273.72 272.89 C 251.27 278.25 228.72 283.19 206.00 287.27 C 205.88 265.51 206.27 243.77 206.75 222.02 C 206.65 203.33 207.18 184.65 207.00 165.96 C 207.01 149.29 206.29 132.33 210.73 116.08 C 218.61 85.44 238.59 59.62 260.88 37.88 Z" />
		<path fill="#5894b8" d=" M 280.98 69.13 C 283.66 67.41 287.24 67.24 289.95 68.99 C 294.44 71.83 297.44 76.40 300.22 80.81 C 308.70 95.34 317.09 109.92 325.40 124.55 C 327.21 127.94 329.73 131.09 330.60 134.90 C 330.85 138.34 329.49 141.62 328.67 144.90 C 318.44 181.78 308.50 218.74 297.59 255.43 C 296.40 259.38 295.76 263.46 295.25 267.55 C 288.08 269.36 280.91 271.17 273.72 272.89 C 268.81 244.13 260.83 216.02 252.57 188.07 C 250.63 181.58 248.85 175.04 246.56 168.66 C 243.56 160.17 240.08 151.77 238.61 142.84 C 237.40 135.83 239.68 128.56 243.87 122.93 C 253.82 109.47 261.83 94.74 270.76 80.62 C 273.58 76.35 276.52 71.86 280.98 69.13 Z" />
		<path fill="#ffffff" d=" M 282.35 94.33 C 284.29 93.17 286.55 94.59 288.13 95.77 C 295.96 101.44 300.01 110.59 303.56 119.26 C 308.65 132.12 309.66 146.76 305.15 159.93 C 298.56 179.52 296.35 200.27 289.83 219.88 C 288.15 224.69 286.20 229.47 283.42 233.76 C 283.26 233.71 282.93 233.62 282.77 233.58 C 274.34 206.58 267.39 179.14 259.38 152.01 C 257.15 144.14 257.66 135.59 260.69 128.00 C 264.24 118.76 271.27 111.54 276.27 103.13 C 278.29 100.21 279.52 96.60 282.35 94.33 Z" />
		<path fill="#ffffff" d=" M 385.16 197.80 C 387.23 196.77 389.89 195.29 392.06 196.93 C 394.71 199.38 396.21 202.78 398.20 205.74 C 431.99 258.39 465.31 311.34 499.13 363.97 C 506.90 376.08 516.89 386.72 523.47 399.59 C 533.72 419.00 537.45 441.25 537.02 463.03 C 536.88 471.27 537.43 480.38 532.51 487.49 C 529.25 492.08 523.20 492.99 517.96 492.78 C 479.33 492.52 440.69 491.99 402.06 490.79 C 388.39 490.57 374.91 496.64 365.90 506.89 C 360.17 513.55 353.84 520.43 345.28 523.29 C 338.64 525.59 331.27 523.40 325.93 519.14 C 316.32 511.53 310.32 500.61 302.99 491.01 C 298.93 486.01 293.85 480.84 287.10 480.12 C 281.50 479.40 276.33 482.78 272.90 486.94 C 268.11 492.83 263.67 499.00 259.13 505.08 C 255.85 509.43 252.84 514.15 248.32 517.33 C 238.23 524.70 223.75 526.55 212.67 520.29 C 207.80 517.65 204.59 513.01 200.79 509.14 C 193.54 501.63 183.97 496.45 173.76 494.36 C 164.31 492.27 154.59 493.46 145.00 493.28 C 123.01 493.62 101.02 493.93 79.02 493.67 C 68.87 493.04 58.67 494.53 48.55 493.24 C 44.07 492.59 39.33 491.24 36.20 487.77 C 33.09 484.31 32.32 479.48 32.03 475.01 C 31.24 461.34 31.89 447.53 34.65 434.10 C 38.24 416.26 45.75 399.25 56.45 384.54 C 63.72 374.52 70.77 364.36 77.86 354.22 C 99.80 374.91 125.91 390.51 152.38 404.67 C 192.14 425.65 233.73 442.86 275.20 460.08 C 290.04 471.96 307.47 480.76 326.20 484.33 C 351.68 489.43 378.91 485.73 401.92 473.57 C 435.75 456.21 459.63 421.00 462.96 383.08 C 465.35 359.03 459.95 334.27 447.58 313.50 C 433.85 290.17 411.60 272.04 385.97 263.35 C 387.30 248.95 387.46 234.48 387.17 220.03 C 386.76 212.60 386.50 205.13 385.16 197.80 Z" />
		<path fill="#ffffff" d=" M 170.27 220.13 C 173.74 215.51 176.86 210.61 180.89 206.44 C 181.09 219.95 181.35 233.47 181.24 246.99 C 181.46 261.77 180.37 276.56 181.56 291.32 C 160.26 294.38 138.75 296.93 117.19 296.25 C 134.38 270.53 152.05 245.13 170.27 220.13 Z" />
		<path fill="#a44054" d=" M 127.57 216.61 C 131.64 214.52 136.03 211.48 140.80 213.36 C 139.27 216.82 137.06 219.92 134.47 222.66 C 126.02 226.52 117.92 231.09 109.95 235.84 C 105.88 238.37 101.49 240.63 98.29 244.30 C 92.10 251.29 86.28 258.73 82.11 267.12 C 79.87 271.84 77.96 277.31 79.60 282.52 C 80.97 286.77 84.99 289.30 88.79 291.18 C 97.74 294.95 107.58 295.85 117.19 296.25 C 138.75 296.93 160.26 294.38 181.56 291.32 C 189.72 290.08 197.87 288.72 206.00 287.27 C 228.72 283.19 251.27 278.25 273.72 272.89 C 280.91 271.17 288.08 269.36 295.25 267.55 C 299.87 266.32 304.52 265.16 309.16 264.01 C 299.80 267.90 290.65 272.41 282.39 278.33 C 279.84 280.16 278.49 283.11 276.21 285.21 C 273.60 287.62 270.65 289.63 267.98 291.95 L 268.35 290.28 C 265.20 291.78 262.72 294.29 261.80 297.72 C 261.04 298.69 260.25 299.65 259.47 300.61 C 255.93 302.65 253.28 305.95 252.70 310.07 C 248.40 317.18 244.72 324.64 241.38 332.25 C 239.82 332.39 239.62 332.99 240.79 334.05 C 240.68 334.30 240.44 334.81 240.33 335.07 L 239.55 335.23 C 239.42 335.92 239.15 337.31 239.02 338.00 L 238.90 338.54 C 238.16 340.92 237.40 343.32 237.31 345.84 C 236.56 350.21 235.63 354.56 235.14 358.97 C 234.58 364.30 235.53 369.65 235.05 374.98 C 234.08 383.99 237.04 392.71 238.60 401.46 C 239.65 407.71 243.75 412.83 245.30 418.92 C 247.44 427.21 253.08 434.01 259.00 439.96 C 260.81 441.87 260.18 445.00 262.05 446.92 C 266.03 451.69 270.67 455.86 275.20 460.08 C 233.73 442.86 192.14 425.65 152.38 404.67 C 125.91 390.51 99.80 374.91 77.86 354.22 C 71.14 347.70 64.93 340.59 59.87 332.69 C 52.21 320.71 47.65 306.12 50.19 291.87 C 52.91 275.67 63.27 262.00 75.08 251.11 C 90.57 236.84 108.92 226.16 127.57 216.61 Z" />
		<path fill="#ffffff" d=" M 109.95 235.84 C 117.92 231.09 126.02 226.52 134.47 222.66 C 119.17 245.45 104.32 268.55 88.79 291.18 C 84.99 289.30 80.97 286.77 79.60 282.52 C 77.96 277.31 79.87 271.84 82.11 267.12 C 86.28 258.73 92.10 251.29 98.29 244.30 C 101.49 240.63 105.88 238.37 109.95 235.84 Z" />
		<path fill="#000000" d=" M 309.16 264.01 C 325.49 258.40 342.99 256.02 360.20 257.78 C 368.96 258.66 377.64 260.48 385.97 263.35 C 411.60 272.04 433.85 290.17 447.58 313.50 C 459.95 334.27 465.35 359.03 462.96 383.08 C 459.63 421.00 435.75 456.21 401.92 473.57 C 378.91 485.73 351.68 489.43 326.20 484.33 C 307.47 480.76 290.04 471.96 275.20 460.08 C 270.67 455.86 266.03 451.69 262.05 446.92 C 260.18 445.00 260.81 441.87 259.00 439.96 C 253.08 434.01 247.44 427.21 245.30 418.92 C 243.75 412.83 239.65 407.71 238.60 401.46 C 237.04 392.71 234.08 383.99 235.05 374.98 C 235.53 369.65 234.58 364.30 235.14 358.97 C 235.63 354.56 236.56 350.21 237.31 345.84 C 238.00 343.44 238.42 340.98 238.90 338.54 L 239.02 338.00 C 240.13 337.31 240.57 336.33 240.33 335.07 C 240.44 334.81 240.68 334.30 240.79 334.05 C 240.94 333.60 241.24 332.70 241.38 332.25 C 244.72 324.64 248.40 317.18 252.70 310.07 C 256.85 310.08 259.98 306.71 261.50 303.16 C 263.08 299.57 266.52 297.43 269.12 294.68 C 265.30 295.63 262.84 298.84 259.47 300.61 C 260.25 299.65 261.04 298.69 261.80 297.72 C 263.62 296.26 265.54 294.94 267.49 293.66 C 267.57 293.39 267.73 292.85 267.81 292.58 L 267.98 291.95 C 270.65 289.63 273.60 287.62 276.21 285.21 C 278.49 283.11 279.84 280.16 282.39 278.33 C 290.65 272.41 299.80 267.90 309.16 264.01 Z" />
		<path fill="#ffffff" d=" M 269.72 300.82 C 288.03 280.26 314.59 267.32 342.08 265.71 C 367.19 263.92 392.52 271.83 412.75 286.68 L 412.00 286.51 C 409.71 285.88 407.32 285.86 404.98 286.06 C 408.07 287.99 411.64 289.16 414.44 291.57 C 416.47 293.41 416.58 296.39 417.27 298.86 C 415.10 296.01 413.18 292.74 409.95 290.96 C 407.67 289.49 404.86 290.33 402.35 290.41 C 404.84 292.02 407.59 293.18 410.05 294.86 C 412.60 296.57 413.47 299.68 414.72 302.32 C 417.55 303.26 420.69 303.87 422.89 306.04 C 424.92 308.01 426.60 310.29 428.54 312.34 C 428.62 310.11 428.38 307.75 426.91 305.97 C 424.33 302.65 419.98 301.70 416.53 299.60 C 422.84 297.47 427.79 302.97 430.95 307.66 C 430.89 306.76 430.77 304.97 430.72 304.07 C 444.46 320.45 452.96 341.14 454.81 362.44 C 456.70 383.77 452.14 405.84 441.25 424.33 L 440.27 424.19 C 440.15 424.81 439.90 426.06 439.78 426.68 C 439.10 428.13 438.28 429.50 437.56 430.93 C 437.62 427.41 437.31 423.90 436.67 420.44 C 434.65 425.97 435.10 433.27 429.26 436.52 C 427.40 440.94 424.15 444.48 420.53 447.52 C 421.97 447.15 423.43 446.80 424.90 446.45 L 424.80 446.83 L 424.91 447.27 C 423.46 448.00 422.11 448.90 420.94 450.03 C 408.03 462.02 392.08 470.71 374.99 475.01 C 352.41 480.82 327.92 478.85 306.55 469.53 C 300.88 467.11 295.61 463.87 290.15 461.03 C 291.35 461.17 293.74 461.44 294.94 461.58 C 291.86 459.37 288.24 457.99 285.32 455.57 C 283.80 453.75 283.16 451.42 282.24 449.29 C 276.82 448.98 273.15 444.95 270.04 440.96 L 270.59 444.03 C 255.78 427.77 245.88 406.99 243.25 385.10 C 241.02 366.98 243.42 348.27 250.44 331.40 C 251.97 327.54 254.03 323.92 255.67 320.11 C 255.81 321.61 256.03 323.09 256.23 324.58 C 257.70 319.91 259.38 315.09 263.09 311.68 C 261.70 314.76 259.68 317.67 259.35 321.12 C 258.95 323.70 260.09 326.14 261.09 328.45 C 262.07 323.27 263.07 317.62 267.47 314.15 C 268.99 309.03 273.16 305.68 277.39 302.79 C 274.91 303.21 272.06 303.28 270.21 305.24 C 268.11 307.53 266.81 310.43 264.67 312.70 C 264.20 306.85 269.79 303.86 273.45 300.44 C 272.52 300.53 270.65 300.72 269.72 300.82 Z" />
		<path fill="#ee3532" d=" M 406.98 277.10 C 408.21 276.82 409.46 276.55 410.71 276.29 C 413.56 279.22 416.54 282.10 420.23 283.97 C 418.88 284.06 417.54 284.14 416.21 284.23 C 413.58 281.86 409.89 281.38 407.12 279.29 C 408.49 279.41 411.23 279.66 412.60 279.78 C 410.77 278.79 408.86 277.94 406.98 277.10 Z" />
		<path fill="#ee3532" d=" M 407.79 282.14 C 411.46 281.91 414.64 283.74 417.41 285.91 C 418.07 285.44 418.73 284.97 419.41 284.52 C 421.03 285.39 422.63 286.28 424.24 287.20 C 423.07 287.20 420.74 287.19 419.57 287.19 C 423.04 288.88 426.67 290.45 429.18 293.54 C 428.62 294.00 428.07 294.47 427.52 294.95 C 430.81 295.70 430.97 299.75 431.93 302.40 C 429.55 298.69 426.75 294.32 421.72 294.45 C 421.14 294.40 419.96 294.30 419.37 294.25 C 418.72 293.00 418.09 291.75 417.39 290.53 C 415.88 286.05 410.54 285.42 407.79 282.14 Z" />
		<path fill="#ee3532" d=" M 404.98 286.06 C 407.32 285.86 409.71 285.88 412.00 286.51 L 412.64 286.78 C 415.26 289.13 417.21 292.06 419.06 295.03 C 420.34 297.27 423.28 297.25 425.42 298.16 C 427.75 299.41 429.66 301.66 430.72 304.07 C 430.77 304.97 430.89 306.76 430.95 307.66 C 427.79 302.97 422.84 297.47 416.53 299.60 C 419.98 301.70 424.33 302.65 426.91 305.97 C 428.38 307.75 428.62 310.11 428.54 312.34 C 426.60 310.29 424.92 308.01 422.89 306.04 C 420.69 303.87 417.55 303.26 414.72 302.32 C 413.47 299.68 412.60 296.57 410.05 294.86 C 407.59 293.18 404.84 292.02 402.35 290.41 C 404.86 290.33 407.67 289.49 409.95 290.96 C 413.18 292.74 415.10 296.01 417.27 298.86 C 416.58 296.39 416.47 293.41 414.44 291.57 C 411.64 289.16 408.07 287.99 404.98 286.06 Z" />
		<path fill="#ffffff" d=" M 412.64 286.78 C 414.28 287.95 415.85 289.22 417.39 290.53 C 418.09 291.75 418.72 293.00 419.37 294.25 C 419.96 294.30 421.14 294.40 421.72 294.45 C 423.00 295.64 424.24 296.87 425.42 298.16 C 423.28 297.25 420.34 297.27 419.06 295.03 C 417.21 292.06 415.26 289.13 412.64 286.78 Z" />
		<path fill="#000000" d=" M 419.55 289.74 C 421.73 290.09 423.89 290.64 425.98 291.37 C 426.06 291.92 426.21 293.03 426.29 293.59 C 424.08 292.33 420.56 292.57 419.55 289.74 Z" />
		<path fill="#db3536" d=" M 261.80 297.72 C 262.72 294.29 265.20 291.78 268.35 290.28 L 267.98 291.95 L 267.81 292.58 C 267.73 292.85 267.57 293.39 267.49 293.66 C 265.54 294.94 263.62 296.26 261.80 297.72 Z" />
		<path fill="#ee3532" d=" M 398.62 294.14 C 401.42 293.95 404.59 293.10 407.05 294.95 C 410.63 296.93 412.24 300.86 413.68 304.46 C 417.01 305.91 420.85 306.85 423.28 309.75 C 425.00 311.72 425.32 314.41 425.62 316.91 C 422.74 315.62 421.87 312.34 419.54 310.45 C 417.02 308.23 413.69 307.43 410.53 306.60 C 410.09 304.07 409.38 301.42 407.33 299.71 C 404.66 297.50 401.22 296.46 398.62 294.14 Z" />
		<path fill="#e0322f" d=" M 259.47 300.61 C 262.84 298.84 265.30 295.63 269.12 294.68 C 266.52 297.43 263.08 299.57 261.50 303.16 C 259.98 306.71 256.85 310.08 252.70 310.07 C 253.28 305.95 255.93 302.65 259.47 300.61 Z" />
		<path fill="#ee3532" d=" M 394.59 296.97 C 395.22 297.25 396.48 297.82 397.11 298.10 C 401.93 296.55 406.87 300.26 408.10 304.87 C 408.64 306.35 408.81 307.98 409.60 309.36 C 411.72 310.67 414.33 311.07 416.28 312.66 C 418.52 315.05 420.57 318.33 419.17 321.70 C 416.84 320.42 415.58 318.09 414.10 316.01 C 412.11 313.10 408.49 312.22 405.46 310.84 C 405.18 308.16 405.19 304.99 402.78 303.24 C 400.43 300.62 396.38 300.08 394.59 296.97 Z" />
		<path fill="#ee3532" d=" M 263.60 301.53 C 265.20 299.36 267.84 298.48 270.36 297.92 C 268.26 300.00 265.62 301.51 263.79 303.85 C 263.15 305.29 262.89 306.87 262.30 308.34 C 260.87 309.28 259.27 309.93 257.91 310.98 C 255.35 313.66 254.60 317.45 253.72 320.93 L 253.06 320.84 C 253.26 318.22 254.11 315.48 252.96 312.94 L 254.41 313.52 C 255.45 311.24 257.20 309.47 259.39 308.28 C 262.17 307.10 261.80 303.58 263.60 301.53 Z" />
		<path fill="#ee3532" d=" M 259.78 311.82 C 264.05 309.00 264.96 303.07 269.72 300.82 C 270.65 300.72 272.52 300.53 273.45 300.44 C 269.79 303.86 264.20 306.85 264.67 312.70 C 266.81 310.43 268.11 307.53 270.21 305.24 C 272.06 303.28 274.91 303.21 277.39 302.79 C 273.16 305.68 268.99 309.03 267.47 314.15 C 263.07 317.62 262.07 323.27 261.09 328.45 C 260.09 326.14 258.95 323.70 259.35 321.12 C 259.68 317.67 261.70 314.76 263.09 311.68 C 259.38 315.09 257.70 319.91 256.23 324.58 C 256.03 323.09 255.81 321.61 255.67 320.11 C 255.79 316.92 257.09 313.68 259.78 311.82 Z" />
		<path fill="#ee3532" d=" M 389.43 301.20 C 392.65 301.77 396.39 301.68 398.82 304.25 C 401.62 306.53 402.00 310.31 403.63 313.31 C 407.36 315.74 412.38 317.60 413.44 322.48 C 413.92 323.67 413.89 326.54 411.93 325.94 C 409.96 324.62 409.02 322.28 407.37 320.64 C 404.77 318.21 401.59 316.51 398.35 315.12 C 399.26 312.74 397.80 310.44 396.73 308.38 C 394.90 305.37 390.77 304.58 389.43 301.20 Z" />
		<path fill="#ee3532" d=" M 383.66 304.10 C 386.02 304.82 388.59 305.02 390.79 306.19 C 393.92 308.99 394.76 313.26 395.88 317.11 C 398.53 319.74 402.35 321.23 404.42 324.54 C 405.89 326.23 404.89 328.57 404.94 330.56 C 401.29 329.72 399.84 326.02 397.34 323.68 C 395.39 321.54 392.59 320.60 389.97 319.61 C 391.55 316.12 390.23 312.04 387.67 309.39 C 386.19 307.74 384.03 306.46 383.66 304.10 Z" />
		<path fill="#ee3532" d=" M 270.99 314.56 C 272.61 309.75 276.76 305.43 282.25 306.20 C 281.38 308.26 279.21 309.18 277.63 310.60 C 275.47 312.36 274.50 315.08 273.38 317.55 C 268.14 320.38 267.89 326.59 267.51 331.82 C 263.02 326.28 266.12 318.67 270.99 314.56 Z" />
		<path fill="#ee3532" d=" M 375.69 307.41 C 383.21 307.82 385.95 315.89 386.13 322.28 C 391.40 324.82 397.52 329.23 396.07 335.99 C 391.95 334.66 390.16 330.46 387.05 327.84 C 384.99 325.92 382.49 324.60 380.18 323.05 C 380.34 322.65 380.67 321.85 380.83 321.45 C 379.80 316.51 377.09 312.20 375.69 307.41 Z" />
		<path fill="#ee3532" d=" M 293.29 309.37 C 293.57 309.32 294.13 309.22 294.42 309.17 C 294.83 309.63 295.67 310.53 296.09 310.99 C 293.68 314.31 290.83 317.44 289.58 321.44 C 288.92 323.93 286.28 325.30 285.78 327.86 C 284.92 331.42 285.35 335.11 285.36 338.73 C 280.06 335.03 280.82 327.77 282.40 322.32 C 283.06 322.33 284.36 322.33 285.02 322.33 C 286.47 320.10 286.30 317.11 287.98 314.96 C 289.63 312.49 292.67 311.75 295.24 310.64 C 294.75 310.32 293.78 309.69 293.29 309.37 Z" />
		<path fill="#ee3532" d=" M 277.66 318.06 C 278.69 313.48 282.58 309.43 287.60 310.15 C 284.57 313.38 281.29 316.41 279.62 320.64 C 276.07 324.93 276.91 330.76 275.97 335.89 C 271.63 331.29 271.90 323.99 275.16 318.88 C 275.99 318.61 276.83 318.33 277.66 318.06 Z" />
		<path fill="#ee3532" d=" M 366.68 310.69 C 368.47 311.09 370.26 311.48 372.06 311.84 C 374.76 315.93 375.53 320.85 375.33 325.67 C 379.94 328.94 386.79 333.71 383.98 340.26 C 380.18 338.39 377.72 334.87 375.36 331.51 C 373.63 328.95 370.67 327.73 368.14 326.16 C 369.08 325.65 370.01 325.13 370.96 324.63 C 370.44 319.72 368.24 315.30 366.68 310.69 Z" />
		<path fill="#ee3532" d=" M 297.21 316.16 C 299.34 314.38 302.05 313.47 304.36 311.93 C 302.13 316.44 299.25 320.63 297.72 325.48 C 296.60 326.34 295.13 327.16 295.15 328.79 C 294.56 333.46 295.85 338.13 295.37 342.82 C 291.14 338.86 289.47 332.64 289.83 327.00 C 289.86 324.65 292.25 324.23 294.01 323.71 C 294.97 321.16 295.43 318.30 297.21 316.16 Z" />
		<path fill="#ee3532" d=" M 358.75 312.35 C 360.53 313.43 363.69 313.37 364.20 315.83 C 365.02 319.90 364.66 324.09 365.02 328.20 C 368.20 330.74 371.10 333.62 373.46 336.96 C 373.25 338.73 372.92 340.50 372.30 342.19 C 366.12 339.21 364.26 331.89 359.01 327.77 C 359.34 327.36 360.00 326.53 360.33 326.12 C 359.91 321.52 359.33 316.94 358.75 312.35 Z" />
		<path fill="#ee3532" d=" M 303.86 325.95 C 304.96 320.52 308.35 315.95 313.05 313.06 C 313.29 317.20 310.03 320.26 309.17 324.14 C 308.70 326.60 306.98 328.53 306.25 330.86 C 306.34 335.54 307.60 340.09 307.89 344.75 C 306.51 343.95 304.74 343.50 303.94 342.00 C 301.40 337.46 300.52 332.16 300.75 327.00 C 301.78 326.65 302.82 326.30 303.86 325.95 Z" />
		<path fill="#ee3532" d=" M 318.06 318.01 C 319.37 316.58 321.24 315.84 322.88 314.87 C 323.97 320.18 318.95 324.49 320.15 329.90 C 319.39 329.97 317.88 330.12 317.13 330.19 C 318.21 334.47 320.02 338.57 320.74 342.95 C 320.75 344.22 321.12 346.12 319.39 346.39 C 314.84 341.47 312.03 335.15 311.04 328.55 C 312.26 328.34 313.46 328.09 314.67 327.81 C 315.79 324.54 316.24 321.00 318.06 318.01 Z" />
		<path fill="#ee3532" d=" M 349.06 327.15 C 348.71 322.83 348.36 318.40 349.65 314.18 C 350.92 314.99 352.26 315.73 353.39 316.75 C 354.05 320.88 354.63 325.24 353.61 329.37 C 355.59 333.07 357.90 336.58 360.08 340.16 C 360.25 341.63 360.32 343.12 360.31 344.61 C 359.51 344.43 357.91 344.06 357.11 343.88 C 352.65 339.44 349.95 333.60 346.29 328.54 C 347.21 328.07 348.13 327.61 349.06 327.15 Z" />
		<path fill="#ee3532" d=" M 325.70 328.56 C 326.41 323.74 327.31 317.59 332.72 315.87 C 332.67 321.06 331.92 326.49 329.75 331.23 C 331.74 336.08 334.10 340.85 334.92 346.08 C 330.74 346.88 328.96 342.56 327.39 339.58 C 325.55 336.29 325.26 332.26 322.77 329.34 C 323.50 329.14 324.97 328.75 325.70 328.56 Z" />
		<path fill="#ee3532" d=" M 337.81 318.72 C 339.46 318.30 341.17 318.28 342.86 318.14 C 342.47 321.86 341.95 325.58 342.07 329.33 C 341.52 329.52 340.42 329.88 339.87 330.07 C 342.12 335.02 346.01 339.09 347.58 344.36 C 340.49 344.35 338.05 336.79 335.49 331.52 C 334.66 330.28 335.72 329.24 336.43 328.28 C 336.64 325.10 335.93 321.54 337.81 318.72 Z" />
		<path fill="#ffffff" d=" M 240.79 334.05 C 239.62 332.99 239.82 332.39 241.38 332.25 C 241.24 332.70 240.94 333.60 240.79 334.05 Z" />
		<path fill="#ffffff" d=" M 239.55 335.23 L 240.33 335.07 C 240.57 336.33 240.13 337.31 239.02 338.00 C 239.15 337.31 239.42 335.92 239.55 335.23 Z" />
		<path fill="#ffffff" d=" M 237.31 345.84 C 237.40 343.32 238.16 340.92 238.90 338.54 C 238.42 340.98 238.00 343.44 237.31 345.84 Z" />
		<path fill="#ee3532" d=" M 352.33 417.09 C 351.82 415.60 352.87 414.32 353.61 413.18 C 357.26 418.44 360.30 424.11 364.14 429.24 C 365.64 430.54 363.22 431.55 362.49 432.39 C 362.24 436.76 360.30 440.72 358.66 444.70 C 357.45 444.18 356.23 443.72 355.08 443.09 C 354.45 439.08 356.19 435.30 356.60 431.38 C 356.50 431.10 356.30 430.54 356.19 430.26 C 356.29 429.81 356.49 428.90 356.59 428.44 C 354.84 424.79 353.18 421.06 352.33 417.09 Z" />
		<path fill="#ee3532" d=" M 365.83 413.78 L 366.89 413.41 C 371.34 418.74 373.30 425.57 376.89 431.43 C 375.64 431.68 374.40 431.95 373.16 432.22 C 372.68 436.95 371.06 441.46 368.11 445.22 C 367.49 444.95 366.23 444.40 365.61 444.12 C 365.76 439.90 367.04 435.88 368.17 431.86 C 367.42 431.49 366.67 431.13 365.93 430.77 C 366.87 430.60 368.76 430.27 369.70 430.11 C 368.13 424.80 365.01 419.43 365.83 413.78 Z" />
		<path fill="#ee3532" d=" M 379.19 414.14 C 379.59 414.13 380.39 414.09 380.79 414.07 C 384.42 419.73 387.32 425.84 388.92 432.39 C 387.45 432.65 386.02 432.98 384.58 433.30 C 384.01 437.78 381.34 441.42 378.72 444.93 C 377.98 444.92 376.50 444.90 375.76 444.89 C 376.55 439.64 378.90 434.65 381.51 430.07 C 379.93 424.94 378.48 419.54 379.19 414.14 Z" />
		<path fill="#ee3532" d=" M 392.06 430.72 C 391.94 425.20 389.40 419.29 391.85 414.01 C 394.39 417.32 396.78 420.81 397.95 424.87 C 397.43 427.50 397.94 430.13 398.85 432.62 C 397.55 432.77 396.26 432.94 394.98 433.11 C 394.67 438.13 391.06 441.84 388.01 445.45 C 387.21 445.45 385.62 445.45 384.83 445.45 C 385.97 441.30 388.40 437.72 390.09 433.82 C 389.82 433.22 389.29 432.01 389.02 431.41 C 389.78 431.24 391.30 430.90 392.06 430.72 Z" />
		<path fill="#ee3532" d=" M 400.89 433.97 C 404.36 428.07 399.88 420.79 403.43 414.83 C 407.64 420.22 408.02 427.15 407.88 433.70 C 406.64 433.90 405.41 434.11 404.18 434.32 C 403.27 437.10 402.74 440.31 400.35 442.27 C 398.19 443.89 395.69 444.95 393.13 445.73 C 395.51 441.67 399.31 438.51 400.89 433.97 Z" />
		<path fill="#ee3532" d=" M 338.86 415.73 C 339.40 415.78 340.48 415.88 341.02 415.93 C 345.09 420.88 348.80 426.22 353.87 430.24 C 353.40 431.62 351.37 431.36 350.36 432.20 C 349.66 436.15 349.91 440.22 349.32 444.19 C 347.91 444.07 346.51 443.95 345.11 443.84 C 343.37 439.35 345.03 434.63 345.34 430.06 C 342.01 425.95 338.58 421.31 338.86 415.73 Z" />
		<path fill="#ee3532" d=" M 413.36 415.51 C 417.65 420.45 418.09 427.98 415.87 434.01 C 414.92 434.32 413.98 434.64 413.04 434.97 C 411.69 438.13 410.39 441.51 407.73 443.84 C 405.69 445.24 403.23 445.88 400.99 446.89 C 403.92 442.44 408.20 438.71 409.47 433.34 C 410.13 432.82 410.80 432.31 411.47 431.81 C 411.94 426.36 412.01 420.83 413.36 415.51 Z" />
		<path fill="#ee3532" d=" M 422.17 418.09 C 422.52 417.72 423.22 416.97 423.57 416.59 C 424.16 420.71 426.02 424.63 425.88 428.84 C 424.95 431.95 422.87 434.65 419.87 435.98 C 418.70 438.12 418.20 440.66 416.56 442.55 C 414.42 445.03 411.26 446.32 408.29 447.51 C 409.65 445.51 411.36 443.80 412.93 441.97 C 415.52 439.06 416.08 434.85 419.26 432.37 C 421.55 428.02 421.07 422.80 422.17 418.09 Z" />
		<path fill="#ee3532" d=" M 324.94 419.04 C 325.38 418.56 326.27 417.60 326.71 417.13 C 330.31 421.25 333.17 426.06 337.37 429.64 C 338.92 431.15 341.17 431.13 343.19 431.38 C 341.50 432.17 339.52 432.59 338.21 433.99 C 337.49 437.53 339.43 440.83 340.41 444.12 C 339.19 446.63 336.93 444.69 335.10 444.14 C 332.79 440.26 332.65 435.80 332.80 431.42 C 328.59 428.60 325.88 423.95 324.94 419.04 Z" />
		<path fill="#ee3532" d=" M 429.74 419.51 C 430.02 419.17 430.57 418.50 430.84 418.17 C 430.87 423.78 433.18 430.79 428.09 435.01 C 425.06 437.01 424.84 440.98 422.39 443.47 C 420.57 445.51 417.77 446.03 415.31 446.86 C 418.90 443.34 422.62 439.53 423.64 434.40 C 427.99 430.70 428.17 424.57 429.74 419.51 Z" />
		<path fill="#ee3532" d=" M 311.99 420.97 C 312.98 420.69 313.98 420.44 314.99 420.20 C 319.85 424.64 322.64 432.15 329.63 433.71 C 328.62 434.38 327.59 435.05 326.69 435.87 C 326.29 439.77 328.86 442.88 330.69 446.05 C 330.84 447.52 329.30 448.72 327.96 447.78 C 325.67 446.68 323.55 444.94 322.43 442.63 C 321.52 439.81 321.60 436.79 321.45 433.86 C 316.38 431.25 313.96 426.01 311.99 420.97 Z" />
		<path fill="#ee3532" d=" M 429.26 436.52 C 435.10 433.27 434.65 425.97 436.67 420.44 C 437.31 423.90 437.62 427.41 437.56 430.93 C 436.15 433.69 434.02 435.96 431.83 438.11 C 431.41 438.13 430.58 438.17 430.16 438.19 C 429.72 439.88 429.12 441.53 428.22 443.04 C 427.21 444.27 426.02 445.33 424.90 446.45 C 423.43 446.80 421.97 447.15 420.53 447.52 C 424.15 444.48 427.40 440.94 429.26 436.52 Z" />
		<path fill="#ee3532" d=" M 301.66 422.56 C 304.86 423.45 306.21 426.63 308.21 428.95 C 310.68 432.11 314.29 434.05 317.85 435.74 C 314.66 438.20 317.04 442.57 319.20 444.86 C 320.41 446.48 323.10 447.68 322.38 450.11 C 319.47 449.86 316.06 449.19 314.35 446.56 C 312.32 443.45 311.45 439.77 310.50 436.22 C 308.31 434.88 305.88 433.79 304.11 431.89 C 302.15 429.21 301.98 425.74 301.66 422.56 Z" />
		<path fill="#ee3532" d=" M 440.27 424.19 L 441.25 424.33 C 442.48 430.03 439.65 435.93 434.69 438.88 C 434.53 439.41 434.20 440.47 434.04 441.00 C 433.79 441.37 433.28 442.12 433.03 442.49 L 433.49 443.20 C 430.78 444.85 428.72 447.40 425.79 448.74 C 425.57 448.37 425.13 447.64 424.91 447.27 L 424.80 446.83 C 428.83 445.89 431.81 442.45 432.94 438.58 C 436.90 435.82 439.40 431.50 439.78 426.68 C 439.90 426.06 440.15 424.81 440.27 424.19 Z" />
		<path fill="#ee3532" d=" M 443.61 424.87 C 443.79 426.59 443.92 428.29 444.08 430.03 C 444.64 429.53 445.76 428.52 446.32 428.02 C 445.39 429.29 444.41 430.54 443.44 431.78 L 444.74 431.90 C 443.01 435.40 441.04 438.75 437.89 441.17 C 437.48 440.88 436.67 440.31 436.26 440.02 C 435.73 442.76 434.19 445.07 432.51 447.25 C 432.70 447.70 433.09 448.60 433.28 449.05 C 432.21 448.87 430.07 448.51 429.00 448.33 C 430.32 446.47 431.90 444.83 433.49 443.20 C 433.63 442.65 433.90 441.55 434.04 441.00 C 434.31 440.65 434.84 439.94 435.11 439.58 L 434.69 438.88 C 440.55 436.99 442.33 430.19 443.61 424.87 Z" />
		<path fill="#ee3532" d=" M 291.11 425.77 C 292.75 425.83 294.37 426.22 295.24 427.77 C 298.48 432.18 302.05 436.72 307.53 438.37 C 307.74 440.84 307.33 443.79 309.26 445.71 C 311.14 447.66 313.28 449.35 315.13 451.35 C 311.48 452.86 307.37 450.94 304.83 448.23 C 302.89 446.06 303.94 442.45 301.65 440.56 C 301.64 438.30 298.95 437.72 297.56 436.40 C 293.81 434.07 292.33 429.76 291.11 425.77 Z" />
		<path fill="#000000" d=" M 437.56 430.93 C 438.28 429.50 439.10 428.13 439.78 426.68 C 439.40 431.50 436.90 435.82 432.94 438.58 C 431.81 442.45 428.83 445.89 424.80 446.83 L 424.90 446.45 C 426.02 445.33 427.21 444.27 428.22 443.04 C 429.46 441.42 430.66 439.78 431.83 438.11 C 434.02 435.96 436.15 433.69 437.56 430.93 Z" />
		<path fill="#ee3532" d=" M 284.04 429.32 C 287.17 431.43 288.79 435.05 291.86 437.24 C 294.19 439.07 297.05 439.96 299.83 440.85 C 300.21 443.27 300.07 446.16 302.07 447.94 C 304.02 449.80 306.30 451.32 307.92 453.51 C 304.35 454.05 300.35 452.82 298.21 449.82 C 296.46 447.46 295.34 444.71 293.66 442.31 C 290.53 441.02 287.20 439.54 285.30 436.58 C 283.84 434.46 284.29 431.73 284.04 429.32 Z" />
		<path fill="#ee3532" d=" M 278.02 432.29 C 281.03 435.54 282.39 440.28 286.44 442.54 C 288.24 443.85 290.48 444.07 292.65 443.89 C 290.86 448.75 295.62 452.87 299.72 454.46 C 300.70 455.21 303.01 455.34 302.28 457.17 C 298.66 457.36 294.72 456.47 292.01 453.93 C 290.17 451.94 289.23 449.33 287.91 447.01 C 285.14 448.65 287.54 451.41 288.82 453.21 C 291.30 456.42 296.59 455.65 298.29 459.63 C 294.83 459.23 291.00 459.19 288.16 456.88 C 285.15 454.91 284.56 450.89 281.97 448.61 C 276.27 447.32 271.04 442.07 272.47 435.84 L 272.66 436.12 C 276.19 441.03 280.36 447.45 287.28 446.87 C 285.26 443.52 280.57 442.78 278.82 439.13 C 277.98 436.97 278.16 434.56 278.02 432.29 Z" />
		<path fill="#ffffff" d=" M 430.16 438.19 C 430.58 438.17 431.41 438.13 431.83 438.11 C 430.66 439.78 429.46 441.42 428.22 443.04 C 429.12 441.53 429.72 439.88 430.16 438.19 Z" />
		<path fill="#1e0706" d=" M 434.04 441.00 C 434.20 440.47 434.53 439.41 434.69 438.88 L 435.11 439.58 C 434.84 439.94 434.31 440.65 434.04 441.00 Z" />
		<path fill="#4b1110" d=" M 433.03 442.49 C 433.28 442.12 433.79 441.37 434.04 441.00 C 433.90 441.55 433.63 442.65 433.49 443.20 L 433.03 442.49 Z" />
		<path fill="#ee3532" d=" M 270.04 440.96 C 273.15 444.95 276.82 448.98 282.24 449.29 C 283.16 451.42 283.80 453.75 285.32 455.57 C 288.24 457.99 291.86 459.37 294.94 461.58 C 293.74 461.44 291.35 461.17 290.15 461.03 C 286.20 460.03 282.94 457.68 281.01 454.09 C 282.08 458.01 285.49 460.02 289.10 461.25 C 289.31 461.77 289.73 462.80 289.94 463.31 L 287.37 462.77 C 284.86 461.03 282.35 459.31 279.79 457.65 C 279.97 459.22 280.15 460.79 280.41 462.35 C 279.58 461.00 278.79 459.63 278.00 458.27 C 273.45 455.97 267.65 453.17 267.84 447.18 C 269.96 449.90 272.37 452.92 276.16 452.97 C 272.60 451.01 269.14 448.25 268.45 443.98 C 270.84 446.84 273.19 450.02 277.06 450.88 C 277.50 450.93 278.37 451.05 278.81 451.11 C 278.39 450.83 277.53 450.27 277.10 449.99 C 274.26 449.39 271.22 447.02 270.59 444.03 L 270.04 440.96 Z" />
		<path fill="#ee3532" d=" M 429.00 448.33 C 428.69 449.04 428.69 449.04 429.00 448.33 Z" />
		<path fill="#e88b89" d=" M 277.10 449.99 C 277.53 450.27 278.39 450.83 278.81 451.11 C 278.37 451.05 277.50 450.93 277.06 450.88 L 277.10 449.99 Z" />
		<path fill="#f37472" d=" M 280.31 452.32 C 280.79 452.84 280.79 452.84 280.31 452.32 Z" />
		<path fill="#e0322f" d=" M 279.79 457.65 C 282.35 459.31 284.86 461.03 287.37 462.77 C 287.87 463.77 288.33 464.80 288.77 465.84 C 285.63 465.84 282.65 464.52 280.41 462.35 C 280.15 460.79 279.97 459.22 279.79 457.65 Z" />
		<path fill="#5894b8" d=" M 191.78 568.78 C 194.56 565.89 197.68 562.73 201.91 562.36 C 207.19 561.59 212.33 564.04 215.87 567.84 C 213.83 571.96 211.47 575.96 208.28 579.31 C 195.56 592.93 183.03 606.73 170.39 620.42 C 168.37 622.67 165.68 624.20 162.78 625.00 L 160.22 625.00 C 155.75 623.84 151.46 620.97 149.65 616.58 C 148.32 613.29 151.35 610.58 153.32 608.37 C 166.16 595.19 178.97 581.99 191.78 568.78 Z" />
		<path fill="#5894b8" d=" M 369.45 564.56 C 374.48 562.87 379.38 565.68 382.91 569.07 C 393.96 580.05 405.16 590.86 416.09 601.95 C 419.19 605.28 422.99 608.10 425.19 612.16 C 426.89 617.28 422.09 621.97 417.51 623.32 C 413.65 624.82 409.51 622.98 406.71 620.28 C 392.70 607.03 378.49 593.93 365.72 579.45 C 363.87 577.18 361.13 575.15 360.95 572.01 C 361.65 567.92 365.71 565.48 369.45 564.56 Z" />
		<path fill="#5894b8" d=" M 252.52 573.05 C 254.56 567.18 261.62 562.60 267.71 565.32 C 274.75 568.26 276.96 577.03 284.07 579.86 C 287.63 581.45 291.47 579.49 294.29 577.32 C 300.01 573.24 303.51 565.52 311.05 564.48 C 316.91 563.39 323.90 568.62 322.02 574.95 C 319.61 580.49 314.29 583.93 310.55 588.50 C 307.19 592.40 303.97 597.55 305.50 602.91 C 306.78 608.28 311.95 611.68 313.20 617.02 C 313.16 620.90 309.39 623.22 306.43 625.00 L 300.25 625.00 C 295.99 622.19 292.94 617.51 287.94 615.92 C 282.08 614.61 278.31 620.21 273.78 622.76 C 267.68 626.39 259.41 621.56 258.00 615.05 C 257.52 610.94 261.34 608.46 263.80 605.83 C 266.39 603.22 269.99 599.78 268.39 595.73 C 265.25 589.44 259.10 585.52 254.67 580.24 C 253.04 578.28 251.66 575.64 252.52 573.05 Z" />
    </symbol>

    <symbol id="small-logo">
      	<title>small-logo</title>
      	<path d="M14.154,11.528c0.42-0.187,0.712-0.321,0.875-0.403c0.162-0.081,0.454-0.286,0.875-0.612
		c1.235-0.932,1.854-2.354,1.854-4.267c0-1.584-0.548-3.008-1.645-4.265c-0.606-0.676-1.51-1.213-2.71-1.609C12.2-0.022,10.656,0,9,0
		H0v24h10c3.359,0,6.02-0.535,7.373-2.05c1.166-1.308,1.75-2.812,1.75-4.514c0-1.537-0.45-2.825-1.347-3.862
		C16.877,12.537,15.67,11.855,14.154,11.528z M5.056,4.395h2.625c1.609,0,2.752,0.173,3.428,0.523c0.676,0.35,1.015,1.067,1.015,2.15
		c0,1.086-0.367,1.791-1.102,2.114c-0.735,0.328-1.861,0.491-3.377,0.491h-2.59V4.395z M12.317,19.028
		c-0.782,0.386-1.955,0.577-3.517,0.577H5.056v-5.63h3.219c1.819,0,3.144,0.179,3.972,0.541c0.827,0.362,1.241,1.11,1.241,2.24
		C13.489,17.886,13.099,18.645,12.317,19.028z M39,14c0-2.727-1.006-4.991-2.814-6.553S32.18,5.106,29.59,5.106
		c-2.588,0-4.833,0.873-6.734,2.619c-1.902,1.751-2.852,4.104-2.852,7.063c0,2.963,0.932,5.323,2.799,7.085
		c1.865,1.758,4.227,2.641,7.085,2.641c2.857,0,5.347-1.006,7.47-3.009l-2.939-3.182c-1.19,1.235-2.707,1.854-4.549,1.854
		c-1.143,0-2.169-0.327-3.079-0.98c-0.91-0.651-1.628-2.171-1.791-3.198h14V14z M25.321,12.938c0.14-1.07,0.642-1.925,1.505-2.552
		c0.863-0.631,1.814-0.946,2.852-0.946c1.038,0,1.917,0.305,2.641,0.911c0.724,0.605,1.144,1.468,1.26,2.587H25.321z"/>
    </symbol>

     <symbol id="icon-menu_320">
      	<title>icon-menu_320</title>
      	<path fill-rule="evenodd" clip-rule="evenodd" d="M0,0v2.999h34V0H0z M0,12.001h34V8.999H0V12.001z M0,21h34v-3H0V21z"/>
    </symbol>

    <symbol id="icon-menu_768">
      	<title>icon-menu_768</title>
      	<rect fill-rule="evenodd" clip-rule="evenodd" width="44" height="3"/>
		<rect y="9" fill-rule="evenodd" clip-rule="evenodd" width="44" height="3.001"/>
		<rect y="18" fill-rule="evenodd" clip-rule="evenodd" width="44" height="3"/>
    </symbol>

	<symbol id="arrow-down">
      	<title>arrow-down</title>
      	<polygon fill-rule="evenodd" clip-rule="evenodd" points="19,5.25 13.749,0 13,0.75 17.249,5.001 0,5.001 0,6.001 17.248,6.001 13,10.25 13.749,11 19,5.75 "/>
    </symbol>

    <symbol id="arrow-right-slide">
      	<title>arrow-right-slide</title>
      	<polygon fill-rule="evenodd" clip-rule="evenodd" points="12,10.4 1.4,0 0,1.4 9.1,10.5 0,19.6 1.4,21 12,10.6 "/>
    </symbol>

    <symbol id="filter-bar">
      	<title>filter-bar</title>
      	<path fill-rule="evenodd" clip-rule="evenodd" d="M0,0v1h14V0H0z M0,5h14V4H0V5z M0,9h14V8H0V9z"/>
    </symbol>

    <symbol id="plus-circle">
      	<title>plus-circle</title>
      	<path fill-rule="evenodd" clip-rule="evenodd" d="M7.3,42.7c-9.8-9.8-9.8-25.6,0-35.4c9.8-9.8,25.6-9.8,35.4,0
			c9.8,9.8,9.8,25.6,0,35.4C32.9,52.4,17.1,52.4,7.3,42.7z M41.3,8.7c-9-9-23.5-9-32.5,0c-9,9-9,23.5,0,32.5c9,9,23.5,9,32.5,0
			C50.2,32.3,50.2,17.7,41.3,8.7z"/>
		<path fill-rule="evenodd" clip-rule="evenodd" d="M32.5,16l1.5,1.5L17.5,34L16,32.5L32.5,16z"/>
		<path fill-rule="evenodd" clip-rule="evenodd" d="M34,32.5L32.5,34L16,17.5l1.5-1.5L34,32.5z"/>
    </symbol>

    <symbol id="tweet-icon">
      	<title>tweet-icon</title>
      	<path d="M33.213,7.472c0.016,0.324,0.022,0.649,0.022,0.979C33.235,18.458,25.6,30,11.637,30C7.348,30,3.36,28.748,0,26.598
		c0.596,0.072,1.199,0.104,1.811,0.104c3.559,0,6.829-1.208,9.426-3.241c-3.32-0.059-6.125-2.249-7.089-5.259
		c0.463,0.09,0.937,0.135,1.427,0.135c0.693,0,1.364-0.09,1.999-0.267c-3.469-0.693-6.088-3.758-6.088-7.426c0-0.031,0-0.062,0-0.095
		c1.025,0.568,2.195,0.911,3.439,0.947C2.888,10.14,1.549,7.818,1.549,5.191c0-1.389,0.375-2.686,1.028-3.807
		c3.742,4.583,9.338,7.597,15.646,7.913c-0.129-0.555-0.196-1.131-0.196-1.726C18.026,3.388,21.425,0,25.618,0
		c2.182,0,4.155,0.919,5.54,2.389c1.728-0.338,3.354-0.969,4.822-1.835c-0.569,1.768-1.77,3.253-3.338,4.186
		C34.177,4.56,35.641,4.154,37,3.551C35.984,5.07,34.697,6.403,33.213,7.472z"/>
    </symbol>

    <symbol id="face-icon">
      	<title>face-icon</title>
      	<path d="M25.5,0C11.417,0,0,11.418,0,25.501C0,39.585,11.417,51,25.5,51C39.583,51,51,39.585,51,25.501C51,11.418,39.583,0,25.5,0z
		 M29.963,26.01L27,26c0,5.708,0,13,0,13h-5c0,0,0-7.22,0-13h-2v-4h2v-3c0-2.086,0.647-6,5-6h4v5c0,0-2.538,0-3,0
		c-0.464,0-1,0.004-1,1v3h4L29.963,26.01z"/>
    </symbol>

    <symbol id="twitter-icon">
      	<title>twitter-icon</title>
      	<path d="M25.5,0C11.418,0,0,11.418,0,25.501C0,39.585,11.418,51,25.5,51C39.583,51,51,39.585,51,25.501C51,11.418,39.583,0,25.5,0z
		 M36.339,21.239c0.011,0.227,0.016,0.453,0.016,0.684c0,6.997-5.365,15.064-15.177,15.064c-3.013,0-5.816-0.876-8.177-2.378
		c0.419,0.047,0.843,0.072,1.272,0.072c2.501,0,4.799-0.844,6.624-2.266c-2.333-0.043-4.304-1.575-4.981-3.676
		c0.325,0.06,0.658,0.095,1.002,0.095c0.487,0,0.958-0.066,1.404-0.186c-2.437-0.489-4.278-2.628-4.278-5.192
		c0-0.021,0-0.045,0-0.066c0.721,0.397,1.543,0.634,2.417,0.662c-1.431-0.948-2.372-2.571-2.372-4.407
		c0-0.971,0.263-1.881,0.722-2.662c2.63,3.203,6.562,5.312,10.994,5.531c-0.09-0.387-0.138-0.79-0.138-1.206
		c0-2.924,2.388-5.293,5.335-5.293c1.533,0,2.92,0.643,3.893,1.67c1.214-0.236,2.356-0.678,3.388-1.285
		c-0.4,1.238-1.244,2.274-2.345,2.93c1.079-0.126,2.107-0.412,3.062-0.831C38.286,19.561,37.381,20.492,36.339,21.239z"/>
    </symbol>

    <symbol id="google-icon">
      	<title>google-icon</title>
      	<path d="M20.321,15.475c-2.024-0.061-3.385,1.977-3.033,4.634c0.349,2.661,2.273,4.52,4.301,4.582
			c2.024,0.059,3.188-1.653,2.84-4.314C24.08,17.718,22.347,15.535,20.321,15.475z"/>
		<path d="M21.173,30.135c-3.02-0.034-5.576,1.905-5.576,4.155c0,2.294,2.18,4.206,5.198,4.206c4.244,0,5.723-1.794,5.723-4.091
			c0-0.277-0.034-0.548-0.097-0.809c-0.333-1.299-1.652-2.012-3.293-3.15C22.533,30.253,21.876,30.141,21.173,30.135z"/>
		<path d="M25.5,0C11.417,0,0,11.418,0,25.501C0,39.585,11.417,51,25.5,51S51,39.585,51,25.501C51,11.418,39.583,0,25.5,0z
			 M27.448,20.264c0,1.663-0.92,3.001-2.22,4.016c-1.27,0.993-1.51,1.407-1.51,2.251c0,0.719,1.517,1.79,2.214,2.312
			c2.426,1.821,2.918,2.967,2.918,5.242c0,2.842-3.062,5.665-8.039,5.665c-4.367,0-8.053-1.774-8.053-4.616
			c0-2.883,3.057-5.89,7.424-5.89c0.477,0,0.912-0.013,1.363-0.013c-0.598-0.577-1.08-1.08-1.08-1.957
			c0-0.523,0.165-1.021,0.398-1.467c-0.236,0.016-0.479,0.031-0.728,0.031c-3.588,0-5.677-2.521-5.677-5.681
			c0-3.094,3.18-5.908,6.993-5.908c1.966,0,7.516,0,7.516,0l-1.68,1.765h-1.973C26.709,16.812,27.448,18.452,27.448,20.264z
			 M38,20.001h-3V23h-2v-2.999h-3V18h3v-2.999h2V18h3V20.001z"/>
    </symbol>

    <symbol id="linkedin-icon">
      	<title>linkedin-icon</title>
      	<path d="M25.5,0C11.416,0,0,11.418,0,25.501C0,39.585,11.416,51,25.5,51C39.583,51,51,39.585,51,25.501C51,11.418,39.583,0,25.5,0z
		 M18,36.001h-5v-16h5V36.001z M15.482,16.998h-0.029C13.964,16.998,13,15.887,13,14.5c0-1.418,0.994-2.499,2.51-2.499
		c1.52,0,2.456,1.081,2.483,2.499C17.994,15.887,17.03,16.998,15.482,16.998z M38,36.001h-5V27c0-2.21-1.007-3.33-2.986-3.33
		c-1.508,0-2.409,1.021-2.805,2.002c-0.145,0.352-0.181,0.837-0.181,1.333L27,36.001h-5c0,0,0.069-14.461,0-16h5l0.028,2.072
		C27.757,20.95,29.099,19,32,19c3.596,0,6,2.948,6,8V36.001z"/>
    </symbol>

    <symbol id="dribbble-icon">
      	<title>dribbble-icon</title>
      	<path d="M25.5,0C11.416,0,0,11.418,0,25.501C0,39.585,11.416,51,25.5,51C39.582,51,51,39.585,51,25.501C51,11.418,39.582,0,25.5,0z
			 M37.988,27.568c-0.165,0.818-0.417,1.625-0.744,2.396c-0.317,0.753-0.713,1.484-1.174,2.167c-0.457,0.675-0.98,1.307-1.556,1.886
			c-0.576,0.576-1.211,1.099-1.887,1.554c-0.682,0.46-1.41,0.855-2.167,1.177c-0.769,0.326-1.574,0.575-2.396,0.743
			c-0.837,0.172-1.702,0.259-2.564,0.259c-0.866,0-1.728-0.087-2.568-0.259c-0.818-0.168-1.625-0.417-2.396-0.743
			c-0.754-0.321-1.485-0.717-2.167-1.177c-0.672-0.455-1.308-0.978-1.887-1.554c-0.575-0.579-1.099-1.211-1.553-1.886
			c-0.461-0.683-0.856-1.414-1.177-2.167c-0.327-0.771-0.576-1.578-0.744-2.396C12.837,26.73,12.75,25.865,12.75,25
			c0-0.862,0.087-1.728,0.258-2.564c0.168-0.819,0.417-1.629,0.744-2.397c0.32-0.756,0.716-1.484,1.177-2.166
			c0.454-0.675,0.978-1.311,1.553-1.887c0.579-0.576,1.215-1.099,1.887-1.557c0.682-0.46,1.413-0.855,2.167-1.177
			c0.771-0.322,1.578-0.575,2.396-0.739c0.841-0.176,1.702-0.263,2.568-0.263c0.862,0,1.728,0.087,2.564,0.263
			c0.822,0.164,1.628,0.417,2.396,0.739c0.757,0.321,1.485,0.717,2.167,1.177c0.676,0.458,1.311,0.98,1.887,1.557
			c0.575,0.576,1.099,1.212,1.556,1.887c0.461,0.682,0.856,1.41,1.174,2.166c0.327,0.769,0.579,1.578,0.744,2.397
			c0.174,0.837,0.262,1.702,0.262,2.564C38.25,25.865,38.162,26.73,37.988,27.568z"/>
		<path d="M32.69,16.829c-1.918-1.69-4.436-2.718-7.19-2.718c-0.885,0-1.743,0.11-2.565,0.309c0.162,0.215,2.207,2.932,4.068,6.353
			C31.112,19.233,32.662,16.872,32.69,16.829z"/>
		<path d="M24.896,21.427c-1.883-3.35-3.897-6.079-4.043-6.272c-3.035,1.432-5.302,4.23-6.008,7.602
			C15.131,22.762,19.669,22.814,24.896,21.427z"/>
		<path d="M26.253,25.084c0.144-0.044,0.283-0.087,0.43-0.128c-0.274-0.618-0.573-1.241-0.884-1.852
			c-5.606,1.678-10.985,1.557-11.179,1.553c-0.003,0.112-0.009,0.228-0.009,0.343c0,2.795,1.055,5.345,2.786,7.271
			C17.4,32.266,20.381,26.982,26.253,25.084z"/>
		<path d="M27.841,22.395c0.255,0.517,0.498,1.047,0.725,1.578c0.081,0.19,0.159,0.377,0.233,0.563c3.742-0.47,7.428,0.32,7.586,0.354
			c-0.027-2.583-0.949-4.952-2.478-6.808C33.889,18.114,32.143,20.639,27.841,22.395z"/>
		<path d="M29.465,26.255c1.426,3.925,2.008,7.118,2.117,7.775c2.446-1.649,4.184-4.267,4.666-7.3
			C36.024,26.656,32.979,25.691,29.465,26.255z"/>
		<path d="M27.352,26.783c-6.331,2.205-8.457,6.615-8.538,6.786c1.848,1.441,4.16,2.319,6.687,2.319c1.506,0,2.944-0.304,4.249-0.862
			c-0.159-0.951-0.794-4.286-2.326-8.268C27.398,26.768,27.377,26.774,27.352,26.783z"/>
    </symbol>

    <symbol id="vimeo-icon">
      	<title>vimeo-icon</title>
      	<path d="M25.5,0C11.418,0,0,11.418,0,25.501C0,39.586,11.418,51,25.5,51S51,39.586,51,25.501C51,11.418,39.582,0,25.5,0z
		 M38.122,19.717c-1.426,8.024-9.385,14.822-11.78,16.377c-2.396,1.554-4.58-0.623-5.371-2.267
		c-0.909-1.878-3.626-12.041-4.337-12.881c-0.712-0.841-2.849,0.84-2.849,0.84L12.75,20.43c0,0,4.336-5.18,7.636-5.827
		c3.5-0.688,3.496,5.372,4.338,8.737c0.813,3.254,1.361,5.114,2.071,5.114c0.713,0,2.071-1.814,3.56-4.595
		c1.489-2.786-0.063-5.244-2.978-3.495C28.541,13.373,39.547,11.692,38.122,19.717z"/>
    </symbol>

    <symbol id="name-icon">
      	<title>name-icon</title>
      	<path d="M17.848,16.01c-1.097-0.457-3.702-1.354-5.305-1.827c-0.137-0.043-0.158-0.05-0.158-0.618c0-0.469,0.193-0.942,0.382-1.342
		c0.204-0.435,0.446-1.165,0.533-1.82c0.243-0.283,0.574-0.839,0.787-1.898c0.187-0.935,0.1-1.274-0.024-1.593
		c-0.013-0.033-0.026-0.066-0.036-0.1c-0.047-0.219,0.018-1.357,0.178-2.24c0.11-0.604-0.028-1.893-0.863-2.958
		C12.813,0.941,11.805,0.114,9.962,0L8.951,0.001C7.14,0.114,6.13,0.941,5.603,1.615C4.768,2.681,4.629,3.969,4.739,4.573
		C4.9,5.456,4.964,6.594,4.918,6.809C4.908,6.846,4.895,6.88,4.881,6.913C4.758,7.232,4.67,7.571,4.857,8.506
		c0.212,1.059,0.543,1.615,0.787,1.898c0.086,0.655,0.328,1.385,0.533,1.82c0.149,0.318,0.22,0.751,0.22,1.363
		c0,0.567-0.021,0.574-0.149,0.615c-1.657,0.488-4.295,1.441-5.278,1.87C0.191,16.406,0,17.005,0,17.546c0,0.54,0,2.143,0,2.497
		C0,20.396,0.211,21,0.97,21c0.584,0,5.26,0,7.384,0C8.99,21,9.4,21,9.4,21h0.183c0,0,0.417,0,1.063,0c2.132,0,6.801,0,7.384,0
		c0.759,0,0.97-0.604,0.97-0.957c0-0.354,0-1.957,0-2.497C19,17.005,18.627,16.345,17.848,16.01z M17.994,20.001h-7.348H9.583H9.4
		H8.354H1v-2.455c0-0.304,0.089-0.439,0.371-0.56c0.947-0.414,3.566-1.358,5.18-1.833c0.847-0.269,0.847-1.02,0.847-1.567
		c0-0.763-0.1-1.331-0.315-1.789c-0.164-0.347-0.373-0.973-0.445-1.524L6.598,9.977L6.4,9.75C6.293,9.625,6.023,9.237,5.838,8.309
		C5.693,7.586,5.758,7.42,5.809,7.285c0.029-0.072,0.057-0.144,0.078-0.225l0.005-0.022l0.005-0.021
		c0.1-0.472-0.035-1.869-0.174-2.624C5.66,4.047,5.74,3.061,6.391,2.229c0.398-0.508,1.171-1.132,2.594-1.23L9.93,0.998
		c1.162,0.08,2.045,0.493,2.624,1.231c0.65,0.832,0.729,1.818,0.667,2.166c-0.141,0.775-0.274,2.148-0.172,2.626l0.008,0.038
		l0.011,0.036c0.015,0.05,0.033,0.103,0.054,0.153l0.009,0.025l0.001,0.001c0.057,0.146,0.121,0.31-0.024,1.034
		c-0.187,0.927-0.456,1.317-0.563,1.442l-0.195,0.226l-0.039,0.295c-0.073,0.55-0.283,1.178-0.447,1.526
		c-0.235,0.5-0.477,1.102-0.477,1.767c0,0.549,0,1.301,0.875,1.576c1.564,0.461,4.142,1.348,5.193,1.787
		C17.852,17.099,18,17.398,18,17.546L17.994,20.001z"/>
    </symbol>

    <symbol id="mail-icon">
      	<title>mail-icon</title>
      	<path d="M23.982,0H1.016H0.816H0.216H0v15.999h25V0h-0.865H23.982z M22.982,1l-9.658,9.658c-0.439,0.44-1.209,0.44-1.648,0L2.016,1
		H22.982z M1,1.397l6.493,6.492L1,14.382V1.397z M1.797,15l6.404-6.402l2.768,2.768C11.377,11.774,11.922,12,12.5,12
		s1.123-0.226,1.531-0.634l2.768-2.768L23.201,15H1.797z M24,14.385L17.506,7.89L24,1.396V14.385z"/>
    </symbol>

    <symbol id="text-icon">
      	<title>text-icon</title>
      	<path fill-rule="evenodd" clip-rule="evenodd" d="M0,3v1h20V3H0z M15,0H0v1h15V0z M0,7h20V6H0V7z M0,10h20V9H0V10z M0,13h20v-1H0V13
		z"/>
    </symbol>

    <symbol id="back-top">
      	<title>back-top</title>
      	<polygon fill-rule="evenodd" clip-rule="evenodd" points="46,15.46 30.54,0 29,1.541 42.46,15 0,15 0,17 42.46,17 29,30.459 
					30.54,32 46,16.54 "/>
    </symbol>
</svg>